<?xml version="1.0" encoding="UTF-8"?>
<!DOCTYPE svg PUBLIC "-//W3C//DTD SVG 1.1//EN"
    "http://www.w3.org/Graphics/SVG/1.1/DTD/svg11.dtd"><svg xmlns="http://www.w3.org/2000/svg" height="600.0000" stroke-opacity="1" viewBox="0 0 800 600" font-size="1" width="800.0000" xmlns:xlink="http://www.w3.org/1999/xlink" stroke="rgb(0,0,0)" version="1.1"><defs></defs><g stroke-linejoin="bevel" stroke-opacity="0.0" fill-opacity="1.0" stroke="rgb(0,0,0)" stroke-width="0.0" fill="rgb(255,255,255)" stroke-linecap="butt" stroke-miterlimit="10.0"><path d="M 0.0000,0.0000 v 600.0000 h 800.0000 v -600.0000 Z"/></g><g stroke-linejoin="bevel" stroke-opacity="0.0" fill-opacity="1.0" stroke="rgb(0,0,0)" stroke-width="0.0" fill="rgb(0,0,0)" stroke-linecap="butt" stroke-miterlimit="10.0"><path d="M 312.4358,20.1694 ZM 314.1042,7.4384 h 3.0801 l 0.2567,1.6170 h 0.1027 c 0.8214,-0.7700 1.7967,-1.3475 1.7967 -1.3475c 0.9754,-0.5775 2.2844,-0.5775 2.2844 -0.5775c 2.0791,0.0000 3.0159,1.3604 3.0159 1.3604c 0.9369,1.3604 0.9369,3.7731 0.9369 3.7731v 7.9055 h -3.7731 v -7.4179 c 0.0000,-1.3860 -0.3722,-1.8994 -0.3722 -1.8994c -0.3722,-0.5133 -1.1935,-0.5133 -1.1935 -0.5133c -0.7187,-0.0000 -1.2320,0.3208 -1.2320 0.3208c -0.5133,0.3208 -1.1294,0.9112 -1.1294 0.9112v 8.5986 h -3.7731 v -12.7310 ZM 327.1176,20.1694 ZM 339.6432,21.6324 v 2.1304 h -12.2177 v -2.1304 h 12.2177 ZM 339.9512,20.1694 ZM 342.1843,16.3450 c 0.8727,0.6674 1.6684,1.0010 1.6684 1.0010c 0.7957,0.3337 1.6170,0.3337 1.6170 0.3337c 0.8470,0.0000 1.2320,-0.2823 1.2320 -0.2823c 0.3850,-0.2823 0.3850,-0.7957 0.3850 -0.7957c 0.0000,-0.3080 -0.2182,-0.5518 -0.2182 -0.5518c -0.2182,-0.2438 -0.5903,-0.4492 -0.5903 -0.4492c -0.3722,-0.2053 -0.8342,-0.3722 -0.8342 -0.3722c -0.4620,-0.1668 -0.9497,-0.3722 -0.9497 -0.3722c -0.5903,-0.2310 -1.1807,-0.5390 -1.1807 -0.5390c -0.5903,-0.3080 -1.0780,-0.7572 -1.0780 -0.7572c -0.4877,-0.4492 -0.7957,-1.0524 -0.7957 -1.0524c -0.3080,-0.6032 -0.3080,-1.3989 -0.3080 -1.3989c 0.0000,-0.8727 0.3465,-1.6170 0.3465 -1.6170c 0.3465,-0.7444 0.9882,-1.2577 0.9882 -1.2577c 0.6417,-0.5133 1.5400,-0.8085 1.5400 -0.8085c 0.8984,-0.2952 2.0021,-0.2952 2.0021 -0.2952c 1.4630,0.0000 2.5667,0.5005 2.5667 0.5005c 1.1037,0.5005 1.9251,1.1165 1.9251 1.1165l -1.6940,2.2587 c -0.6930,-0.5133 -1.3604,-0.7957 -1.3604 -0.7957c -0.6674,-0.2823 -1.3347,-0.2823 -1.3347 -0.2823c -1.4374,-0.0000 -1.4374,1.0010 -1.4374 1.0010c 0.0000,0.3080 0.2053,0.5262 0.2053 0.5262c 0.2053,0.2182 0.5518,0.3978 0.5518 0.3978c 0.3465,0.1797 0.7957,0.3465 0.7957 0.3465c 0.4492,0.1668 0.9369,0.3465 0.9369 0.3465c 0.6160,0.2310 1.2192,0.5262 1.2192 0.5262c 0.6032,0.2952 1.1037,0.7315 1.1037 0.7315c 0.5005,0.4363 0.8085,1.0652 0.8085 1.0652c 0.3080,0.6289 0.3080,1.5015 0.3080 1.5015c 0.0000,0.8727 -0.3337,1.6170 -0.3337 1.6170c -0.3337,0.7444 -1.0010,1.2962 -1.0010 1.2962c -0.6674,0.5518 -1.6427,0.8727 -1.6427 0.8727c -0.9754,0.3208 -2.2587,0.3208 -2.2587 0.3208c -1.2577,-0.0000 -2.5796,-0.4877 -2.5796 -0.4877c -1.3219,-0.4877 -2.2972,-1.2834 -2.2972 -1.2834ZM 351.3219,20.1694 ZM 353.5036,10.3901 h -1.7454 v -2.7977 l 1.9507,-0.1540 l 0.4363,-3.3881 h 3.1314 v 3.3881 h 3.0544 v 2.9517 h -3.0544 v 5.1078 c 0.0000,1.0780 0.4492,1.5529 0.4492 1.5529c 0.4492,0.4748 1.1935,0.4748 1.1935 0.4748c 0.3080,0.0000 0.6289,-0.0770 0.6289 -0.0770c 0.3208,-0.0770 0.5775,-0.1797 0.5775 -0.1797l 0.5903,2.7464 c -0.5133,0.1540 -1.2064,0.3080 -1.2064 0.3080c -0.6930,0.1540 -1.6170,0.1540 -1.6170 0.1540c -1.1807,-0.0000 -2.0149,-0.3593 -2.0149 -0.3593c -0.8342,-0.3593 -1.3604,-1.0010 -1.3604 -1.0010c -0.5262,-0.6417 -0.7700,-1.5529 -0.7700 -1.5529c -0.2438,-0.9112 -0.2438,-2.0149 -0.2438 -2.0149v -5.1591 ZM 360.8445,20.1694 ZM 362.0508,16.6273 c 0.0000,-2.0021 1.6940,-3.1314 1.6940 -3.1314c 1.6940,-1.1294 5.4671,-1.5144 5.4671 -1.5144c -0.0513,-0.8470 -0.5133,-1.3475 -0.5133 -1.3475c -0.4620,-0.5005 -1.4887,-0.5005 -1.4887 -0.5005c -0.8214,-0.0000 -1.6427,0.3080 -1.6427 0.3080c -0.8214,0.3080 -1.7454,0.8470 -1.7454 0.8470l -1.3347,-2.4897 c 1.2320,-0.7444 2.5796,-1.2064 2.5796 -1.2064c 1.3475,-0.4620 2.8619,-0.4620 2.8619 -0.4620c 2.4641,0.0000 3.7603,1.3989 3.7603 1.3989c 1.2962,1.3989 1.2962,4.3506 1.2962 4.3506v 7.2895 h -3.0801 l -0.2823,-1.3090 h -0.0770 c -0.8214,0.7187 -1.7325,1.1679 -1.7325 1.1679c -0.9112,0.4492 -1.9892,0.4492 -1.9892 0.4492c -0.8727,-0.0000 -1.5657,-0.2952 -1.5657 -0.2952c -0.6930,-0.2952 -1.1807,-0.8214 -1.1807 -0.8214c -0.4877,-0.5262 -0.7572,-1.2192 -0.7572 -1.2192c -0.2695,-0.6930 -0.2695,-1.5144 -0.2695 -1.5144ZM 362.0508,16.6273 ZM 365.6443,16.3450 c 0.0000,0.6160 0.3978,0.9112 0.3978 0.9112c 0.3978,0.2952 1.0652,0.2952 1.0652 0.2952c 0.6674,0.0000 1.1294,-0.2823 1.1294 -0.2823c 0.4620,-0.2823 0.9754,-0.7957 0.9754 -0.7957v -2.2331 c -2.0277,0.2823 -2.7977,0.8214 -2.7977 0.8214c -0.7700,0.5390 -0.7700,1.2834 -0.7700 1.2834ZM 374.5508,20.1694 ZM 378.5293,21.7608 c 0.0000,0.7187 0.7700,1.0909 0.7700 1.0909c 0.7700,0.3722 2.0534,0.3722 2.0534 0.3722c 1.2834,0.0000 2.1047,-0.4492 2.1047 -0.4492c 0.8214,-0.4492 0.8214,-1.1165 0.8214 -1.1165c 0.0000,-0.5903 -0.5005,-0.7957 -0.5005 -0.7957c -0.5005,-0.2053 -1.4502,-0.2053 -1.4502 -0.2053h -1.3090 c -0.6674,-0.0000 -1.0780,-0.0385 -1.0780 -0.0385c -0.4107,-0.0385 -0.7187,-0.1155 -0.7187 -0.1155c -0.6930,0.6160 -0.6930,1.2577 -0.6930 1.2577ZM 378.5293,21.7608 ZM 375.4235,22.3511 c 0.0000,-1.5400 1.8224,-2.5667 1.8224 -2.5667v -0.1027 c -0.5133,-0.3337 -0.8470,-0.8470 -0.8470 -0.8470c -0.3337,-0.5133 -0.3337,-1.3090 -0.3337 -1.3090c 0.0000,-0.6930 0.4107,-1.3219 0.4107 -1.3219c 0.4107,-0.6289 1.0267,-1.0652 1.0267 -1.0652v -0.1027 c -0.6674,-0.4620 -1.1935,-1.3219 -1.1935 -1.3219c -0.5262,-0.8599 -0.5262,-1.9892 -0.5262 -1.9892c 0.0000,-1.1550 0.4363,-2.0149 0.4363 -2.0149c 0.4363,-0.8599 1.1679,-1.4374 1.1679 -1.4374c 0.7315,-0.5775 1.6812,-0.8599 1.6812 -0.8599c 0.9497,-0.2823 1.9764,-0.2823 1.9764 -0.2823c 1.1294,0.0000 1.9764,0.3080 1.9764 0.3080h 4.6458 v 2.7464 h -2.0277 c 0.1797,0.2823 0.2952,0.7187 0.2952 0.7187c 0.1155,0.4363 0.1155,0.9497 0.1155 0.9497c 0.0000,1.1037 -0.3850,1.9122 -0.3850 1.9122c -0.3850,0.8085 -1.0652,1.3347 -1.0652 1.3347c -0.6802,0.5262 -1.5914,0.7829 -1.5914 0.7829c -0.9112,0.2567 -1.9636,0.2567 -1.9636 0.2567c -0.7444,-0.0000 -1.5400,-0.2567 -1.5400 -0.2567c -0.2567,0.2053 -0.3593,0.4107 -0.3593 0.4107c -0.1027,0.2053 -0.1027,0.5390 -0.1027 0.5390c 0.0000,0.4877 0.4235,0.7187 0.4235 0.7187c 0.4235,0.2310 1.5015,0.2310 1.5015 0.2310h 2.0534 c 2.3614,0.0000 3.6063,0.7572 3.6063 0.7572c 1.2449,0.7572 1.2449,2.4769 1.2449 2.4769c 0.0000,1.0010 -0.5005,1.8352 -0.5005 1.8352c -0.5005,0.8342 -1.4245,1.4374 -1.4245 1.4374c -0.9240,0.6032 -2.2331,0.9497 -2.2331 0.9497c -1.3090,0.3465 -2.9517,0.3465 -2.9517 0.3465c -1.1294,-0.0000 -2.0919,-0.1925 -2.0919 -0.1925c -0.9625,-0.1925 -1.6940,-0.5775 -1.6940 -0.5775c -0.7315,-0.3850 -1.1422,-1.0010 -1.1422 -1.0010c -0.4107,-0.6160 -0.4107,-1.4630 -0.4107 -1.4630ZM 375.4235,22.3511 ZM 381.0447,13.8552 c 0.7444,0.0000 1.2449,-0.5262 1.2449 -0.5262c 0.5005,-0.5262 0.5005,-1.6042 0.5005 -1.6042c 0.0000,-1.0010 -0.5005,-1.5272 -0.5005 -1.5272c -0.5005,-0.5262 -1.2449,-0.5262 -1.2449 -0.5262c -0.7444,-0.0000 -1.2449,0.5133 -1.2449 0.5133c -0.5005,0.5133 -0.5005,1.5400 -0.5005 1.5400c 0.0000,1.0780 0.5005,1.6042 0.5005 1.6042c 0.5005,0.5262 1.2449,0.5262 1.2449 0.5262ZM 387.7952,20.1694 ZM 388.7192,13.8039 c 0.0000,-1.5400 0.5133,-2.7849 0.5133 -2.7849c 0.5133,-1.2449 1.3475,-2.1047 1.3475 -2.1047c 0.8342,-0.8599 1.9122,-1.3219 1.9122 -1.3219c 1.0780,-0.4620 2.2331,-0.4620 2.2331 -0.4620c 1.3604,0.0000 2.3742,0.4620 2.3742 0.4620c 1.0139,0.4620 1.6940,1.2834 1.6940 1.2834c 0.6802,0.8214 1.0139,1.9379 1.0139 1.9379c 0.3337,1.1165 0.3337,2.4256 0.3337 2.4256c 0.0000,0.5133 -0.0513,0.9369 -0.0513 0.9369c -0.0513,0.4235 -0.1027,0.6545 -0.1027 0.6545h -7.6232 c 0.2567,1.4630 1.1422,2.1176 1.1422 2.1176c 0.8855,0.6545 2.1689,0.6545 2.1689 0.6545c 1.3604,0.0000 2.7464,-0.8470 2.7464 -0.8470l 1.2577,2.2844 c -0.9754,0.6674 -2.1689,1.0524 -2.1689 1.0524c -1.1935,0.3850 -2.3486,0.3850 -2.3486 0.3850c -1.3604,-0.0000 -2.5411,-0.4492 -2.5411 -0.4492c -1.1807,-0.4492 -2.0534,-1.3090 -2.0534 -1.3090c -0.8727,-0.8599 -1.3604,-2.0919 -1.3604 -2.0919c -0.4877,-1.2320 -0.4877,-2.8234 -0.4877 -2.8234ZM 388.7192,13.8039 ZM 396.9328,12.4949 c 0.0000,-1.1037 -0.4877,-1.7967 -0.4877 -1.7967c -0.4877,-0.6930 -1.6427,-0.6930 -1.6427 -0.6930c -0.8984,-0.0000 -1.5785,0.6032 -1.5785 0.6032c -0.6802,0.6032 -0.8855,1.8866 -0.8855 1.8866h 4.5945 ZM 401.0909,20.1694 ZM 403.3239,16.3450 c 0.8727,0.6674 1.6684,1.0010 1.6684 1.0010c 0.7957,0.3337 1.6170,0.3337 1.6170 0.3337c 0.8470,0.0000 1.2320,-0.2823 1.2320 -0.2823c 0.3850,-0.2823 0.3850,-0.7957 0.3850 -0.7957c 0.0000,-0.3080 -0.2182,-0.5518 -0.2182 -0.5518c -0.2182,-0.2438 -0.5903,-0.4492 -0.5903 -0.4492c -0.3722,-0.2053 -0.8342,-0.3722 -0.8342 -0.3722c -0.4620,-0.1668 -0.9497,-0.3722 -0.9497 -0.3722c -0.5903,-0.2310 -1.1807,-0.5390 -1.1807 -0.5390c -0.5903,-0.3080 -1.0780,-0.7572 -1.0780 -0.7572c -0.4877,-0.4492 -0.7957,-1.0524 -0.7957 -1.0524c -0.3080,-0.6032 -0.3080,-1.3989 -0.3080 -1.3989c 0.0000,-0.8727 0.3465,-1.6170 0.3465 -1.6170c 0.3465,-0.7444 0.9882,-1.2577 0.9882 -1.2577c 0.6417,-0.5133 1.5400,-0.8085 1.5400 -0.8085c 0.8984,-0.2952 2.0021,-0.2952 2.0021 -0.2952c 1.4630,0.0000 2.5667,0.5005 2.5667 0.5005c 1.1037,0.5005 1.9251,1.1165 1.9251 1.1165l -1.6940,2.2587 c -0.6930,-0.5133 -1.3604,-0.7957 -1.3604 -0.7957c -0.6674,-0.2823 -1.3347,-0.2823 -1.3347 -0.2823c -1.4374,-0.0000 -1.4374,1.0010 -1.4374 1.0010c 0.0000,0.3080 0.2053,0.5262 0.2053 0.5262c 0.2053,0.2182 0.5518,0.3978 0.5518 0.3978c 0.3465,0.1797 0.7957,0.3465 0.7957 0.3465c 0.4492,0.1668 0.9369,0.3465 0.9369 0.3465c 0.6160,0.2310 1.2192,0.5262 1.2192 0.5262c 0.6032,0.2952 1.1037,0.7315 1.1037 0.7315c 0.5005,0.4363 0.8085,1.0652 0.8085 1.0652c 0.3080,0.6289 0.3080,1.5015 0.3080 1.5015c 0.0000,0.8727 -0.3337,1.6170 -0.3337 1.6170c -0.3337,0.7444 -1.0010,1.2962 -1.0010 1.2962c -0.6674,0.5518 -1.6427,0.8727 -1.6427 0.8727c -0.9754,0.3208 -2.2587,0.3208 -2.2587 0.3208c -1.2577,-0.0000 -2.5796,-0.4877 -2.5796 -0.4877c -1.3219,-0.4877 -2.2972,-1.2834 -2.2972 -1.2834ZM 412.4615,20.1694 ZM 417.6976,24.7639 c -1.6170,-2.6437 -2.5026,-5.4928 -2.5026 -5.4928c -0.8855,-2.8491 -0.8855,-6.2372 -0.8855 -6.2372c 0.0000,-3.3881 0.8855,-6.2372 0.8855 -6.2372c 0.8855,-2.8491 2.5026,-5.4928 2.5026 -5.4928l 2.3614,0.9754 c -1.4117,2.5154 -2.0534,5.2618 -2.0534 5.2618c -0.6417,2.7464 -0.6417,5.4928 -0.6417 5.4928c 0.0000,2.7464 0.6417,5.4928 0.6417 5.4928c 0.6417,2.7464 2.0534,5.2618 2.0534 5.2618l -2.3614,0.9754 h 0.0000 ZM 421.2911,20.1694 ZM 423.2675,3.4343 h 4.0041 l 2.7977,7.5205 l 1.0010,2.9261 h 0.1027 l 1.0010,-2.9261 l 2.7207,-7.5205 h 3.9784 v 16.7351 h -3.5164 v -6.1345 c 0.0000,-0.6160 0.0513,-1.3604 0.0513 -1.3604c 0.0513,-0.7444 0.1283,-1.5015 0.1283 -1.5015c 0.0770,-0.7572 0.1540,-1.4887 0.1540 -1.4887c 0.0770,-0.7315 0.1540,-1.3475 0.1540 -1.3475h -0.1027 l -1.3860,3.8758 l -2.5667,6.4938 h -1.5144 l -2.5667,-6.4938 l -1.3347,-3.8758 h -0.1027 c 0.0770,0.6160 0.1540,1.3475 0.1540 1.3475c 0.0770,0.7315 0.1412,1.4887 0.1412 1.4887c 0.0642,0.7572 0.1155,1.5015 0.1155 1.5015c 0.0513,0.7444 0.0513,1.3604 0.0513 1.3604v 6.1345 h -3.4651 v -16.7351 ZM 440.8496,20.1694 ZM 441.7736,13.8039 c 0.0000,-1.5400 0.5133,-2.7849 0.5133 -2.7849c 0.5133,-1.2449 1.3475,-2.1047 1.3475 -2.1047c 0.8342,-0.8599 1.9122,-1.3219 1.9122 -1.3219c 1.0780,-0.4620 2.2331,-0.4620 2.2331 -0.4620c 1.3604,0.0000 2.3742,0.4620 2.3742 0.4620c 1.0139,0.4620 1.6940,1.2834 1.6940 1.2834c 0.6802,0.8214 1.0139,1.9379 1.0139 1.9379c 0.3337,1.1165 0.3337,2.4256 0.3337 2.4256c 0.0000,0.5133 -0.0513,0.9369 -0.0513 0.9369c -0.0513,0.4235 -0.1027,0.6545 -0.1027 0.6545h -7.6232 c 0.2567,1.4630 1.1422,2.1176 1.1422 2.1176c 0.8855,0.6545 2.1689,0.6545 2.1689 0.6545c 1.3604,0.0000 2.7464,-0.8470 2.7464 -0.8470l 1.2577,2.2844 c -0.9754,0.6674 -2.1689,1.0524 -2.1689 1.0524c -1.1935,0.3850 -2.3486,0.3850 -2.3486 0.3850c -1.3604,-0.0000 -2.5411,-0.4492 -2.5411 -0.4492c -1.1807,-0.4492 -2.0534,-1.3090 -2.0534 -1.3090c -0.8727,-0.8599 -1.3604,-2.0919 -1.3604 -2.0919c -0.4877,-1.2320 -0.4877,-2.8234 -0.4877 -2.8234ZM 441.7736,13.8039 ZM 449.9872,12.4949 c 0.0000,-1.1037 -0.4877,-1.7967 -0.4877 -1.7967c -0.4877,-0.6930 -1.6427,-0.6930 -1.6427 -0.6930c -0.8984,-0.0000 -1.5785,0.6032 -1.5785 0.6032c -0.6802,0.6032 -0.8855,1.8866 -0.8855 1.8866h 4.5945 ZM 453.8629,20.1694 ZM 455.0693,16.6273 c 0.0000,-2.0021 1.6940,-3.1314 1.6940 -3.1314c 1.6940,-1.1294 5.4671,-1.5144 5.4671 -1.5144c -0.0513,-0.8470 -0.5133,-1.3475 -0.5133 -1.3475c -0.4620,-0.5005 -1.4887,-0.5005 -1.4887 -0.5005c -0.8214,-0.0000 -1.6427,0.3080 -1.6427 0.3080c -0.8214,0.3080 -1.7454,0.8470 -1.7454 0.8470l -1.3347,-2.4897 c 1.2320,-0.7444 2.5796,-1.2064 2.5796 -1.2064c 1.3475,-0.4620 2.8619,-0.4620 2.8619 -0.4620c 2.4641,0.0000 3.7603,1.3989 3.7603 1.3989c 1.2962,1.3989 1.2962,4.3506 1.2962 4.3506v 7.2895 h -3.0801 l -0.2823,-1.3090 h -0.0770 c -0.8214,0.7187 -1.7325,1.1679 -1.7325 1.1679c -0.9112,0.4492 -1.9892,0.4492 -1.9892 0.4492c -0.8727,-0.0000 -1.5657,-0.2952 -1.5657 -0.2952c -0.6930,-0.2952 -1.1807,-0.8214 -1.1807 -0.8214c -0.4877,-0.5262 -0.7572,-1.2192 -0.7572 -1.2192c -0.2695,-0.6930 -0.2695,-1.5144 -0.2695 -1.5144ZM 455.0693,16.6273 ZM 458.6627,16.3450 c 0.0000,0.6160 0.3978,0.9112 0.3978 0.9112c 0.3978,0.2952 1.0652,0.2952 1.0652 0.2952c 0.6674,0.0000 1.1294,-0.2823 1.1294 -0.2823c 0.4620,-0.2823 0.9754,-0.7957 0.9754 -0.7957v -2.2331 c -2.0277,0.2823 -2.7977,0.8214 -2.7977 0.8214c -0.7700,0.5390 -0.7700,1.2834 -0.7700 1.2834ZM 467.5693,20.1694 ZM 469.2377,7.4384 h 3.0801 l 0.2567,1.6170 h 0.1027 c 0.8214,-0.7700 1.7967,-1.3475 1.7967 -1.3475c 0.9754,-0.5775 2.2844,-0.5775 2.2844 -0.5775c 2.0791,0.0000 3.0159,1.3604 3.0159 1.3604c 0.9369,1.3604 0.9369,3.7731 0.9369 3.7731v 7.9055 h -3.7731 v -7.4179 c 0.0000,-1.3860 -0.3722,-1.8994 -0.3722 -1.8994c -0.3722,-0.5133 -1.1935,-0.5133 -1.1935 -0.5133c -0.7187,-0.0000 -1.2320,0.3208 -1.2320 0.3208c -0.5133,0.3208 -1.1294,0.9112 -1.1294 0.9112v 8.5986 h -3.7731 v -12.7310 ZM 482.2510,20.1694 ZM 483.4831,23.7885 c 1.4374,-2.5154 2.0791,-5.2618 2.0791 -5.2618c 0.6417,-2.7464 0.6417,-5.4928 0.6417 -5.4928c 0.0000,-2.7464 -0.6417,-5.4928 -0.6417 -5.4928c -0.6417,-2.7464 -2.0791,-5.2618 -2.0791 -5.2618l 2.3614,-0.9754 c 1.6170,2.6437 2.5026,5.4928 2.5026 5.4928c 0.8855,2.8491 0.8855,6.2372 0.8855 6.2372c 0.0000,3.3881 -0.8855,6.2372 -0.8855 6.2372c -0.8855,2.8491 -2.5026,5.4928 -2.5026 5.4928l -2.3614,-0.9754 h 0.0000 Z"/></g><g stroke-linejoin="miter" stroke-opacity="1.0" fill-opacity="0.0" stroke="rgb(211,211,211)" stroke-width="0.9999999999999997" fill="rgb(0,0,0)" stroke-dashoffset="0.0" stroke-linecap="butt" stroke-miterlimit="10.0" stroke-dasharray="4.999999999999998,4.999999999999998"><path d="M 54.9412,540.0000 h 693.6050 "/></g><g stroke-linejoin="miter" stroke-opacity="1.0" fill-opacity="0.0" stroke="rgb(211,211,211)" stroke-width="0.9999999999999997" fill="rgb(0,0,0)" stroke-dashoffset="0.0" stroke-linecap="butt" stroke-miterlimit="10.0" stroke-dasharray="4.999999999999998,4.999999999999998"><path d="M 54.9412,416.7500 h 693.6050 "/></g><g stroke-linejoin="miter" stroke-opacity="1.0" fill-opacity="0.0" stroke="rgb(211,211,211)" stroke-width="0.9999999999999997" fill="rgb(0,0,0)" stroke-dashoffset="0.0" stroke-linecap="butt" stroke-miterlimit="10.0" stroke-dasharray="4.999999999999998,4.999999999999998"><path d="M 54.9412,293.5000 h 693.6050 "/></g><g stroke-linejoin="miter" stroke-opacity="1.0" fill-opacity="0.0" stroke="rgb(211,211,211)" stroke-width="0.9999999999999997" fill="rgb(0,0,0)" stroke-dashoffset="0.0" stroke-linecap="butt" stroke-miterlimit="10.0" stroke-dasharray="4.999999999999998,4.999999999999998"><path d="M 54.9412,170.2500 h 693.6050 "/></g><g stroke-linejoin="miter" stroke-opacity="1.0" fill-opacity="0.0" stroke="rgb(211,211,211)" stroke-width="0.9999999999999997" fill="rgb(0,0,0)" stroke-dashoffset="0.0" stroke-linecap="butt" stroke-miterlimit="10.0" stroke-dasharray="4.999999999999998,4.999999999999998"><path d="M 54.9412,47.0000 h 693.6050 "/></g><g stroke-linejoin="bevel" stroke-opacity="0.0" fill-opacity="1.0" stroke="rgb(0,0,0)" stroke-width="0.0" fill="rgb(0,0,255)" stroke-linecap="butt" stroke-miterlimit="10.0"><defs><clipPath id="myClip1"><path d="M 54.9412,47.0000 v 493.0000 h 693.6050 v -493.0000 Z"/></clipPath></defs><g clip-path="url(#myClip1)"><path d="M 69.9412,540.0000 v -62.7784 h 79.2006 v 62.7784 Z"/></g></g><g stroke-linejoin="bevel" stroke-opacity="0.0" fill-opacity="1.0" stroke="rgb(0,0,0)" stroke-width="0.0" fill="rgb(0,128,0)" stroke-linecap="butt" stroke-miterlimit="10.0"><defs><clipPath id="myClip2"><path d="M 54.9412,47.0000 v 493.0000 h 693.6050 v -493.0000 Z"/></clipPath></defs><g clip-path="url(#myClip2)"><path d="M 149.1418,540.0000 v -94.6648 h 79.2006 v 94.6648 Z"/></g></g><g stroke-linejoin="bevel" stroke-opacity="0.0" fill-opacity="1.0" stroke="rgb(0,0,0)" stroke-width="0.0" fill="rgb(255,0,0)" stroke-linecap="butt" stroke-miterlimit="10.0"><defs><clipPath id="myClip3"><path d="M 54.9412,47.0000 v 493.0000 h 693.6050 v -493.0000 Z"/></clipPath></defs><g clip-path="url(#myClip3)"><path d="M 228.3424,540.0000 v -133.2052 h 79.2006 v 133.2052 Z"/></g></g><g stroke-linejoin="bevel" stroke-opacity="0.0" fill-opacity="1.0" stroke="rgb(0,0,0)" stroke-width="0.0" fill="rgb(255,165,0)" stroke-linecap="butt" stroke-miterlimit="10.0"><defs><clipPath id="myClip4"><path d="M 54.9412,47.0000 v 493.0000 h 693.6050 v -493.0000 Z"/></clipPath></defs><g clip-path="url(#myClip4)"><path d="M 307.5431,540.0000 v -170.3451 h 79.2006 v 170.3451 Z"/></g></g><g stroke-linejoin="miter" stroke-opacity="1.0" fill-opacity="0.0" stroke="rgb(0,0,0)" stroke-width="0.9999999999999997" fill="rgb(0,0,0)" stroke-linecap="butt" stroke-miterlimit="10.0"><defs><clipPath id="myClip5"><path d="M 54.9412,47.0000 v 493.0000 h 693.6050 v -493.0000 Z"/></clipPath></defs><g clip-path="url(#myClip5)"><path d="M 69.9412,540.0000 v -62.7784 h 79.2006 v 62.7784 Z"/></g></g><g stroke-linejoin="miter" stroke-opacity="1.0" fill-opacity="0.0" stroke="rgb(0,0,0)" stroke-width="0.9999999999999997" fill="rgb(0,0,0)" stroke-linecap="butt" stroke-miterlimit="10.0"><defs><clipPath id="myClip6"><path d="M 54.9412,47.0000 v 493.0000 h 693.6050 v -493.0000 Z"/></clipPath></defs><g clip-path="url(#myClip6)"><path d="M 149.1418,540.0000 v -94.6648 h 79.2006 v 94.6648 Z"/></g></g><g stroke-linejoin="miter" stroke-opacity="1.0" fill-opacity="0.0" stroke="rgb(0,0,0)" stroke-width="0.9999999999999997" fill="rgb(0,0,0)" stroke-linecap="butt" stroke-miterlimit="10.0"><defs><clipPath id="myClip7"><path d="M 54.9412,47.0000 v 493.0000 h 693.6050 v -493.0000 Z"/></clipPath></defs><g clip-path="url(#myClip7)"><path d="M 228.3424,540.0000 v -133.2052 h 79.2006 v 133.2052 Z"/></g></g><g stroke-linejoin="miter" stroke-opacity="1.0" fill-opacity="0.0" stroke="rgb(0,0,0)" stroke-width="0.9999999999999997" fill="rgb(0,0,0)" stroke-linecap="butt" stroke-miterlimit="10.0"><defs><clipPath id="myClip8"><path d="M 54.9412,47.0000 v 493.0000 h 693.6050 v -493.0000 Z"/></clipPath></defs><g clip-path="url(#myClip8)"><path d="M 307.5431,540.0000 v -170.3451 h 79.2006 v 170.3451 Z"/></g></g><g stroke-linejoin="bevel" stroke-opacity="0.0" fill-opacity="1.0" stroke="rgb(0,0,0)" stroke-width="0.0" fill="rgb(0,0,255)" stroke-linecap="butt" stroke-miterlimit="10.0"><defs><clipPath id="myClip9"><path d="M 54.9412,47.0000 v 493.0000 h 693.6050 v -493.0000 Z"/></clipPath></defs><g clip-path="url(#myClip9)"><path d="M 416.7437,540.0000 v -89.5974 h 79.2006 v 89.5974 Z"/></g></g><g stroke-linejoin="bevel" stroke-opacity="0.0" fill-opacity="1.0" stroke="rgb(0,0,0)" stroke-width="0.0" fill="rgb(0,128,0)" stroke-linecap="butt" stroke-miterlimit="10.0"><defs><clipPath id="myClip10"><path d="M 54.9412,47.0000 v 493.0000 h 693.6050 v -493.0000 Z"/></clipPath></defs><g clip-path="url(#myClip10)"><path d="M 495.9443,540.0000 v -196.5227 h 79.2006 v 196.5227 Z"/></g></g><g stroke-linejoin="bevel" stroke-opacity="0.0" fill-opacity="1.0" stroke="rgb(0,0,0)" stroke-width="0.0" fill="rgb(255,0,0)" stroke-linecap="butt" stroke-miterlimit="10.0"><defs><clipPath id="myClip11"><path d="M 54.9412,47.0000 v 493.0000 h 693.6050 v -493.0000 Z"/></clipPath></defs><g clip-path="url(#myClip11)"><path d="M 575.1450,540.0000 v -336.0308 h 79.2006 v 336.0308 Z"/></g></g><g stroke-linejoin="bevel" stroke-opacity="0.0" fill-opacity="1.0" stroke="rgb(0,0,0)" stroke-width="0.0" fill="rgb(255,165,0)" stroke-linecap="butt" stroke-miterlimit="10.0"><defs><clipPath id="myClip12"><path d="M 54.9412,47.0000 v 493.0000 h 693.6050 v -493.0000 Z"/></clipPath></defs><g clip-path="url(#myClip12)"><path d="M 654.3456,540.0000 v -479.9862 h 79.2006 v 479.9862 Z"/></g></g><g stroke-linejoin="miter" stroke-opacity="1.0" fill-opacity="0.0" stroke="rgb(0,0,0)" stroke-width="0.9999999999999997" fill="rgb(0,0,0)" stroke-linecap="butt" stroke-miterlimit="10.0"><defs><clipPath id="myClip13"><path d="M 54.9412,47.0000 v 493.0000 h 693.6050 v -493.0000 Z"/></clipPath></defs><g clip-path="url(#myClip13)"><path d="M 416.7437,540.0000 v -89.5974 h 79.2006 v 89.5974 Z"/></g></g><g stroke-linejoin="miter" stroke-opacity="1.0" fill-opacity="0.0" stroke="rgb(0,0,0)" stroke-width="0.9999999999999997" fill="rgb(0,0,0)" stroke-linecap="butt" stroke-miterlimit="10.0"><defs><clipPath id="myClip14"><path d="M 54.9412,47.0000 v 493.0000 h 693.6050 v -493.0000 Z"/></clipPath></defs><g clip-path="url(#myClip14)"><path d="M 495.9443,540.0000 v -196.5227 h 79.2006 v 196.5227 Z"/></g></g><g stroke-linejoin="miter" stroke-opacity="1.0" fill-opacity="0.0" stroke="rgb(0,0,0)" stroke-width="0.9999999999999997" fill="rgb(0,0,0)" stroke-linecap="butt" stroke-miterlimit="10.0"><defs><clipPath id="myClip15"><path d="M 54.9412,47.0000 v 493.0000 h 693.6050 v -493.0000 Z"/></clipPath></defs><g clip-path="url(#myClip15)"><path d="M 575.1450,540.0000 v -336.0308 h 79.2006 v 336.0308 Z"/></g></g><g stroke-linejoin="miter" stroke-opacity="1.0" fill-opacity="0.0" stroke="rgb(0,0,0)" stroke-width="0.9999999999999997" fill="rgb(0,0,0)" stroke-linecap="butt" stroke-miterlimit="10.0"><defs><clipPath id="myClip16"><path d="M 54.9412,47.0000 v 493.0000 h 693.6050 v -493.0000 Z"/></clipPath></defs><g clip-path="url(#myClip16)"><path d="M 654.3456,540.0000 v -479.9862 h 79.2006 v 479.9862 Z"/></g></g><g stroke-linejoin="miter" stroke-opacity="1.0" fill-opacity="0.0" stroke="rgb(0,0,0)" stroke-width="0.9999999999999997" fill="rgb(0,0,0)" stroke-linecap="square" stroke-miterlimit="10.0"><path d="M 54.9412,540.0000 v -493.0000 "/></g><g stroke-linejoin="miter" stroke-opacity="1.0" fill-opacity="0.0" stroke="rgb(0,0,0)" stroke-width="0.9999999999999997" fill="rgb(0,0,0)" stroke-linecap="butt" stroke-miterlimit="10.0"><path d="M 54.9412,540.0000 h 2.0000 "/></g><g stroke-linejoin="miter" stroke-opacity="1.0" fill-opacity="0.0" stroke="rgb(0,0,0)" stroke-width="0.9999999999999997" fill="rgb(0,0,0)" stroke-linecap="butt" stroke-miterlimit="10.0"><path d="M 54.9412,527.6750 h 2.0000 "/></g><g stroke-linejoin="miter" stroke-opacity="1.0" fill-opacity="0.0" stroke="rgb(0,0,0)" stroke-width="0.9999999999999997" fill="rgb(0,0,0)" stroke-linecap="butt" stroke-miterlimit="10.0"><path d="M 54.9412,515.3500 h 2.0000 "/></g><g stroke-linejoin="miter" stroke-opacity="1.0" fill-opacity="0.0" stroke="rgb(0,0,0)" stroke-width="0.9999999999999997" fill="rgb(0,0,0)" stroke-linecap="butt" stroke-miterlimit="10.0"><path d="M 54.9412,503.0250 h 2.0000 "/></g><g stroke-linejoin="miter" stroke-opacity="1.0" fill-opacity="0.0" stroke="rgb(0,0,0)" stroke-width="0.9999999999999997" fill="rgb(0,0,0)" stroke-linecap="butt" stroke-miterlimit="10.0"><path d="M 54.9412,490.7000 h 2.0000 "/></g><g stroke-linejoin="miter" stroke-opacity="1.0" fill-opacity="0.0" stroke="rgb(0,0,0)" stroke-width="0.9999999999999997" fill="rgb(0,0,0)" stroke-linecap="butt" stroke-miterlimit="10.0"><path d="M 54.9412,478.3750 h 2.0000 "/></g><g stroke-linejoin="miter" stroke-opacity="1.0" fill-opacity="0.0" stroke="rgb(0,0,0)" stroke-width="0.9999999999999997" fill="rgb(0,0,0)" stroke-linecap="butt" stroke-miterlimit="10.0"><path d="M 54.9412,466.0500 h 2.0000 "/></g><g stroke-linejoin="miter" stroke-opacity="1.0" fill-opacity="0.0" stroke="rgb(0,0,0)" stroke-width="0.9999999999999997" fill="rgb(0,0,0)" stroke-linecap="butt" stroke-miterlimit="10.0"><path d="M 54.9412,453.7250 h 2.0000 "/></g><g stroke-linejoin="miter" stroke-opacity="1.0" fill-opacity="0.0" stroke="rgb(0,0,0)" stroke-width="0.9999999999999997" fill="rgb(0,0,0)" stroke-linecap="butt" stroke-miterlimit="10.0"><path d="M 54.9412,441.4000 h 2.0000 "/></g><g stroke-linejoin="miter" stroke-opacity="1.0" fill-opacity="0.0" stroke="rgb(0,0,0)" stroke-width="0.9999999999999997" fill="rgb(0,0,0)" stroke-linecap="butt" stroke-miterlimit="10.0"><path d="M 54.9412,429.0750 h 2.0000 "/></g><g stroke-linejoin="miter" stroke-opacity="1.0" fill-opacity="0.0" stroke="rgb(0,0,0)" stroke-width="0.9999999999999997" fill="rgb(0,0,0)" stroke-linecap="butt" stroke-miterlimit="10.0"><path d="M 54.9412,416.7500 h 2.0000 "/></g><g stroke-linejoin="miter" stroke-opacity="1.0" fill-opacity="0.0" stroke="rgb(0,0,0)" stroke-width="0.9999999999999997" fill="rgb(0,0,0)" stroke-linecap="butt" stroke-miterlimit="10.0"><path d="M 54.9412,404.4250 h 2.0000 "/></g><g stroke-linejoin="miter" stroke-opacity="1.0" fill-opacity="0.0" stroke="rgb(0,0,0)" stroke-width="0.9999999999999997" fill="rgb(0,0,0)" stroke-linecap="butt" stroke-miterlimit="10.0"><path d="M 54.9412,392.1000 h 2.0000 "/></g><g stroke-linejoin="miter" stroke-opacity="1.0" fill-opacity="0.0" stroke="rgb(0,0,0)" stroke-width="0.9999999999999997" fill="rgb(0,0,0)" stroke-linecap="butt" stroke-miterlimit="10.0"><path d="M 54.9412,379.7750 h 2.0000 "/></g><g stroke-linejoin="miter" stroke-opacity="1.0" fill-opacity="0.0" stroke="rgb(0,0,0)" stroke-width="0.9999999999999997" fill="rgb(0,0,0)" stroke-linecap="butt" stroke-miterlimit="10.0"><path d="M 54.9412,367.4500 h 2.0000 "/></g><g stroke-linejoin="miter" stroke-opacity="1.0" fill-opacity="0.0" stroke="rgb(0,0,0)" stroke-width="0.9999999999999997" fill="rgb(0,0,0)" stroke-linecap="butt" stroke-miterlimit="10.0"><path d="M 54.9412,355.1250 h 2.0000 "/></g><g stroke-linejoin="miter" stroke-opacity="1.0" fill-opacity="0.0" stroke="rgb(0,0,0)" stroke-width="0.9999999999999997" fill="rgb(0,0,0)" stroke-linecap="butt" stroke-miterlimit="10.0"><path d="M 54.9412,342.8000 h 2.0000 "/></g><g stroke-linejoin="miter" stroke-opacity="1.0" fill-opacity="0.0" stroke="rgb(0,0,0)" stroke-width="0.9999999999999997" fill="rgb(0,0,0)" stroke-linecap="butt" stroke-miterlimit="10.0"><path d="M 54.9412,330.4750 h 2.0000 "/></g><g stroke-linejoin="miter" stroke-opacity="1.0" fill-opacity="0.0" stroke="rgb(0,0,0)" stroke-width="0.9999999999999997" fill="rgb(0,0,0)" stroke-linecap="butt" stroke-miterlimit="10.0"><path d="M 54.9412,318.1500 h 2.0000 "/></g><g stroke-linejoin="miter" stroke-opacity="1.0" fill-opacity="0.0" stroke="rgb(0,0,0)" stroke-width="0.9999999999999997" fill="rgb(0,0,0)" stroke-linecap="butt" stroke-miterlimit="10.0"><path d="M 54.9412,305.8250 h 2.0000 "/></g><g stroke-linejoin="miter" stroke-opacity="1.0" fill-opacity="0.0" stroke="rgb(0,0,0)" stroke-width="0.9999999999999997" fill="rgb(0,0,0)" stroke-linecap="butt" stroke-miterlimit="10.0"><path d="M 54.9412,293.5000 h 2.0000 "/></g><g stroke-linejoin="miter" stroke-opacity="1.0" fill-opacity="0.0" stroke="rgb(0,0,0)" stroke-width="0.9999999999999997" fill="rgb(0,0,0)" stroke-linecap="butt" stroke-miterlimit="10.0"><path d="M 54.9412,281.1750 h 2.0000 "/></g><g stroke-linejoin="miter" stroke-opacity="1.0" fill-opacity="0.0" stroke="rgb(0,0,0)" stroke-width="0.9999999999999997" fill="rgb(0,0,0)" stroke-linecap="butt" stroke-miterlimit="10.0"><path d="M 54.9412,268.8500 h 2.0000 "/></g><g stroke-linejoin="miter" stroke-opacity="1.0" fill-opacity="0.0" stroke="rgb(0,0,0)" stroke-width="0.9999999999999997" fill="rgb(0,0,0)" stroke-linecap="butt" stroke-miterlimit="10.0"><path d="M 54.9412,256.5250 h 2.0000 "/></g><g stroke-linejoin="miter" stroke-opacity="1.0" fill-opacity="0.0" stroke="rgb(0,0,0)" stroke-width="0.9999999999999997" fill="rgb(0,0,0)" stroke-linecap="butt" stroke-miterlimit="10.0"><path d="M 54.9412,244.2000 h 2.0000 "/></g><g stroke-linejoin="miter" stroke-opacity="1.0" fill-opacity="0.0" stroke="rgb(0,0,0)" stroke-width="0.9999999999999997" fill="rgb(0,0,0)" stroke-linecap="butt" stroke-miterlimit="10.0"><path d="M 54.9412,231.8750 h 2.0000 "/></g><g stroke-linejoin="miter" stroke-opacity="1.0" fill-opacity="0.0" stroke="rgb(0,0,0)" stroke-width="0.9999999999999997" fill="rgb(0,0,0)" stroke-linecap="butt" stroke-miterlimit="10.0"><path d="M 54.9412,219.5500 h 2.0000 "/></g><g stroke-linejoin="miter" stroke-opacity="1.0" fill-opacity="0.0" stroke="rgb(0,0,0)" stroke-width="0.9999999999999997" fill="rgb(0,0,0)" stroke-linecap="butt" stroke-miterlimit="10.0"><path d="M 54.9412,207.2250 h 2.0000 "/></g><g stroke-linejoin="miter" stroke-opacity="1.0" fill-opacity="0.0" stroke="rgb(0,0,0)" stroke-width="0.9999999999999997" fill="rgb(0,0,0)" stroke-linecap="butt" stroke-miterlimit="10.0"><path d="M 54.9412,194.9000 h 2.0000 "/></g><g stroke-linejoin="miter" stroke-opacity="1.0" fill-opacity="0.0" stroke="rgb(0,0,0)" stroke-width="0.9999999999999997" fill="rgb(0,0,0)" stroke-linecap="butt" stroke-miterlimit="10.0"><path d="M 54.9412,182.5750 h 2.0000 "/></g><g stroke-linejoin="miter" stroke-opacity="1.0" fill-opacity="0.0" stroke="rgb(0,0,0)" stroke-width="0.9999999999999997" fill="rgb(0,0,0)" stroke-linecap="butt" stroke-miterlimit="10.0"><path d="M 54.9412,170.2500 h 2.0000 "/></g><g stroke-linejoin="miter" stroke-opacity="1.0" fill-opacity="0.0" stroke="rgb(0,0,0)" stroke-width="0.9999999999999997" fill="rgb(0,0,0)" stroke-linecap="butt" stroke-miterlimit="10.0"><path d="M 54.9412,157.9250 h 2.0000 "/></g><g stroke-linejoin="miter" stroke-opacity="1.0" fill-opacity="0.0" stroke="rgb(0,0,0)" stroke-width="0.9999999999999997" fill="rgb(0,0,0)" stroke-linecap="butt" stroke-miterlimit="10.0"><path d="M 54.9412,145.6000 h 2.0000 "/></g><g stroke-linejoin="miter" stroke-opacity="1.0" fill-opacity="0.0" stroke="rgb(0,0,0)" stroke-width="0.9999999999999997" fill="rgb(0,0,0)" stroke-linecap="butt" stroke-miterlimit="10.0"><path d="M 54.9412,133.2750 h 2.0000 "/></g><g stroke-linejoin="miter" stroke-opacity="1.0" fill-opacity="0.0" stroke="rgb(0,0,0)" stroke-width="0.9999999999999997" fill="rgb(0,0,0)" stroke-linecap="butt" stroke-miterlimit="10.0"><path d="M 54.9412,120.9500 h 2.0000 "/></g><g stroke-linejoin="miter" stroke-opacity="1.0" fill-opacity="0.0" stroke="rgb(0,0,0)" stroke-width="0.9999999999999997" fill="rgb(0,0,0)" stroke-linecap="butt" stroke-miterlimit="10.0"><path d="M 54.9412,108.6250 h 2.0000 "/></g><g stroke-linejoin="miter" stroke-opacity="1.0" fill-opacity="0.0" stroke="rgb(0,0,0)" stroke-width="0.9999999999999997" fill="rgb(0,0,0)" stroke-linecap="butt" stroke-miterlimit="10.0"><path d="M 54.9412,96.3000 h 2.0000 "/></g><g stroke-linejoin="miter" stroke-opacity="1.0" fill-opacity="0.0" stroke="rgb(0,0,0)" stroke-width="0.9999999999999997" fill="rgb(0,0,0)" stroke-linecap="butt" stroke-miterlimit="10.0"><path d="M 54.9412,83.9750 h 2.0000 "/></g><g stroke-linejoin="miter" stroke-opacity="1.0" fill-opacity="0.0" stroke="rgb(0,0,0)" stroke-width="0.9999999999999997" fill="rgb(0,0,0)" stroke-linecap="butt" stroke-miterlimit="10.0"><path d="M 54.9412,71.6500 h 2.0000 "/></g><g stroke-linejoin="miter" stroke-opacity="1.0" fill-opacity="0.0" stroke="rgb(0,0,0)" stroke-width="0.9999999999999997" fill="rgb(0,0,0)" stroke-linecap="butt" stroke-miterlimit="10.0"><path d="M 54.9412,59.3250 h 2.0000 "/></g><g stroke-linejoin="miter" stroke-opacity="1.0" fill-opacity="0.0" stroke="rgb(0,0,0)" stroke-width="0.9999999999999997" fill="rgb(0,0,0)" stroke-linecap="butt" stroke-miterlimit="10.0"><path d="M 54.9412,47.0000 h 2.0000 "/></g><g stroke-linejoin="miter" stroke-opacity="1.0" fill-opacity="0.0" stroke="rgb(0,0,0)" stroke-width="0.9999999999999997" fill="rgb(0,0,0)" stroke-linecap="butt" stroke-miterlimit="10.0"><path d="M 54.9412,540.0000 h 5.0000 "/></g><g stroke-linejoin="miter" stroke-opacity="1.0" fill-opacity="0.0" stroke="rgb(0,0,0)" stroke-width="0.9999999999999997" fill="rgb(0,0,0)" stroke-linecap="butt" stroke-miterlimit="10.0"><path d="M 54.9412,416.7500 h 5.0000 "/></g><g stroke-linejoin="miter" stroke-opacity="1.0" fill-opacity="0.0" stroke="rgb(0,0,0)" stroke-width="0.9999999999999997" fill="rgb(0,0,0)" stroke-linecap="butt" stroke-miterlimit="10.0"><path d="M 54.9412,293.5000 h 5.0000 "/></g><g stroke-linejoin="miter" stroke-opacity="1.0" fill-opacity="0.0" stroke="rgb(0,0,0)" stroke-width="0.9999999999999997" fill="rgb(0,0,0)" stroke-linecap="butt" stroke-miterlimit="10.0"><path d="M 54.9412,170.2500 h 5.0000 "/></g><g stroke-linejoin="miter" stroke-opacity="1.0" fill-opacity="0.0" stroke="rgb(0,0,0)" stroke-width="0.9999999999999997" fill="rgb(0,0,0)" stroke-linecap="butt" stroke-miterlimit="10.0"><path d="M 54.9412,47.0000 h 5.0000 "/></g><g stroke-linejoin="bevel" stroke-opacity="0.0" fill-opacity="1.0" stroke="rgb(0,0,0)" stroke-width="0.0" fill="rgb(0,0,0)" stroke-linecap="butt" stroke-miterlimit="10.0"><path d="M 17.4265,544.8235 ZM 21.0882,545.0000 c -1.4265,-0.0000 -2.2206,-1.2647 -2.2206 -1.2647c -0.7941,-1.2647 -0.7941,-3.6324 -0.7941 -3.6324c 0.0000,-2.3676 0.7941,-3.6029 0.7941 -3.6029c 0.7941,-1.2353 2.2206,-1.2353 2.2206 -1.2353c 1.4118,0.0000 2.2059,1.2353 2.2059 1.2353c 0.7941,1.2353 0.7941,3.6029 0.7941 3.6029c 0.0000,2.3676 -0.7941,3.6324 -0.7941 3.6324c -0.7941,1.2647 -2.2059,1.2647 -2.2059 1.2647ZM 21.0882,545.0000 ZM 21.0882,544.0294 c 0.4118,0.0000 0.7426,-0.2279 0.7426 -0.2279c 0.3309,-0.2279 0.5735,-0.7059 0.5735 -0.7059c 0.2426,-0.4779 0.3750,-1.2206 0.3750 -1.2206c 0.1324,-0.7426 0.1324,-1.7721 0.1324 -1.7721c 0.0000,-1.0294 -0.1324,-1.7647 -0.1324 -1.7647c -0.1324,-0.7353 -0.3750,-1.1985 -0.3750 -1.1985c -0.2426,-0.4632 -0.5735,-0.6838 -0.5735 -0.6838c -0.3309,-0.2206 -0.7426,-0.2206 -0.7426 -0.2206c -0.4118,-0.0000 -0.7500,0.2206 -0.7500 0.2206c -0.3382,0.2206 -0.5809,0.6838 -0.5809 0.6838c -0.2426,0.4632 -0.3750,1.1985 -0.3750 1.1985c -0.1324,0.7353 -0.1324,1.7647 -0.1324 1.7647c 0.0000,2.0588 0.5074,2.9926 0.5074 2.9926c 0.5074,0.9338 1.3309,0.9338 1.3309 0.9338ZM 27.7059,544.8235 ZM 28.9118,537.6765 h 1.0000 l 0.1029,1.0294 h 0.0441 c 0.4706,-0.5147 1.0221,-0.8603 1.0221 -0.8603c 0.5515,-0.3456 1.1985,-0.3456 1.1985 -0.3456c 0.8235,0.0000 1.2868,0.3603 1.2868 0.3603c 0.4632,0.3603 0.6838,1.0074 0.6838 1.0074c 0.5588,-0.6176 1.1250,-0.9926 1.1250 -0.9926c 0.5662,-0.3750 1.2279,-0.3750 1.2279 -0.3750c 1.1029,0.0000 1.6397,0.7059 1.6397 0.7059c 0.5368,0.7059 0.5368,2.0882 0.5368 2.0882v 4.5294 h -1.2059 v -4.3676 c 0.0000,-1.0147 -0.3235,-1.4632 -0.3235 -1.4632c -0.3235,-0.4485 -1.0000,-0.4485 -1.0000 -0.4485c -0.8088,-0.0000 -1.7941,1.1029 -1.7941 1.1029v 5.1765 h -1.2059 v -4.3676 c 0.0000,-1.0147 -0.3235,-1.4632 -0.3235 -1.4632c -0.3235,-0.4485 -1.0147,-0.4485 -1.0147 -0.4485c -0.8088,-0.0000 -1.7941,1.1029 -1.7941 1.1029v 5.1765 h -1.2059 v -7.1471 ZM 39.8971,544.8235 ZM 40.9118,543.2059 c 0.4706,0.3824 0.9632,0.6176 0.9632 0.6176c 0.4926,0.2353 1.1397,0.2353 1.1397 0.2353c 0.7059,0.0000 1.0588,-0.3235 1.0588 -0.3235c 0.3529,-0.3235 0.3529,-0.7941 0.3529 -0.7941c 0.0000,-0.2794 -0.1471,-0.4853 -0.1471 -0.4853c -0.1471,-0.2059 -0.3750,-0.3603 -0.3750 -0.3603c -0.2279,-0.1544 -0.5221,-0.2721 -0.5221 -0.2721l -0.5882,-0.2353 c -0.3824,-0.1324 -0.7647,-0.3015 -0.7647 -0.3015c -0.3824,-0.1691 -0.6838,-0.4118 -0.6838 -0.4118c -0.3015,-0.2426 -0.4926,-0.5662 -0.4926 -0.5662c -0.1912,-0.3235 -0.1912,-0.7794 -0.1912 -0.7794c 0.0000,-0.4265 0.1691,-0.8015 0.1691 -0.8015c 0.1691,-0.3750 0.4853,-0.6471 0.4853 -0.6471c 0.3162,-0.2721 0.7721,-0.4265 0.7721 -0.4265c 0.4559,-0.1544 1.0294,-0.1544 1.0294 -0.1544c 0.6765,0.0000 1.2426,0.2353 1.2426 0.2353c 0.5662,0.2353 0.9779,0.5735 0.9779 0.5735l -0.5735,0.7647 c -0.3676,-0.2794 -0.7647,-0.4559 -0.7647 -0.4559c -0.3971,-0.1765 -0.8676,-0.1765 -0.8676 -0.1765c -0.6765,-0.0000 -0.9926,0.3088 -0.9926 0.3088c -0.3162,0.3088 -0.3162,0.7206 -0.3162 0.7206c 0.0000,0.2500 0.1324,0.4338 0.1324 0.4338c 0.1324,0.1838 0.3529,0.3235 0.3529 0.3235c 0.2206,0.1397 0.5074,0.2500 0.5074 0.2500c 0.2868,0.1103 0.5956,0.2279 0.5956 0.2279c 0.3824,0.1471 0.7721,0.3088 0.7721 0.3088c 0.3897,0.1618 0.6985,0.4044 0.6985 0.4044c 0.3088,0.2426 0.5074,0.5956 0.5074 0.5956c 0.1985,0.3529 0.1985,0.8529 0.1985 0.8529c 0.0000,0.4412 -0.1691,0.8235 -0.1691 0.8235c -0.1691,0.3824 -0.5000,0.6765 -0.5000 0.6765c -0.3309,0.2941 -0.8235,0.4632 -0.8235 0.4632c -0.4926,0.1691 -1.1250,0.1691 -1.1250 0.1691c -0.7647,-0.0000 -1.4559,-0.2794 -1.4559 -0.2794c -0.6912,-0.2794 -1.2059,-0.7059 -1.2059 -0.7059Z"/></g><g stroke-linejoin="bevel" stroke-opacity="0.0" fill-opacity="1.0" stroke="rgb(0,0,0)" stroke-width="0.0" fill="rgb(0,0,0)" stroke-linecap="butt" stroke-miterlimit="10.0"><path d="M 17.1471,421.5735 ZM 18.1029,419.6765 c 0.4118,0.4265 0.9779,0.7500 0.9779 0.7500c 0.5662,0.3235 1.3897,0.3235 1.3897 0.3235c 0.4265,0.0000 0.8015,-0.1544 0.8015 -0.1544c 0.3750,-0.1544 0.6544,-0.4338 0.6544 -0.4338c 0.2794,-0.2794 0.4412,-0.6765 0.4412 -0.6765c 0.1618,-0.3971 0.1618,-0.8824 0.1618 -0.8824c 0.0000,-0.9706 -0.5441,-1.5147 -0.5441 -1.5147c -0.5441,-0.5441 -1.4559,-0.5441 -1.4559 -0.5441c -0.4853,-0.0000 -0.8309,0.1471 -0.8309 0.1471c -0.3456,0.1471 -0.7721,0.4265 -0.7721 0.4265l -0.6471,-0.4118 l 0.3088,-4.5147 h 4.6912 v 1.0441 h -3.6324 l -0.2500,2.7794 c 0.3382,-0.1765 0.6765,-0.2794 0.6765 -0.2794c 0.3382,-0.1029 0.7647,-0.1029 0.7647 -0.1029c 0.6029,0.0000 1.1324,0.1765 1.1324 0.1765c 0.5294,0.1765 0.9265,0.5368 0.9265 0.5368c 0.3971,0.3603 0.6250,0.9118 0.6250 0.9118c 0.2279,0.5515 0.2279,1.3162 0.2279 1.3162c 0.0000,0.7647 -0.2647,1.3529 -0.2647 1.3529c -0.2647,0.5882 -0.7059,0.9926 -0.7059 0.9926c -0.4412,0.4044 -1.0074,0.6176 -1.0074 0.6176c -0.5662,0.2132 -1.1838,0.2132 -1.1838 0.2132c -0.5588,-0.0000 -1.0221,-0.1103 -1.0221 -0.1103c -0.4632,-0.1103 -0.8382,-0.2868 -0.8382 -0.2868c -0.3750,-0.1765 -0.6765,-0.4044 -0.6765 -0.4044c -0.3015,-0.2279 -0.5368,-0.4779 -0.5368 -0.4779ZM 27.4265,421.5735 ZM 28.6324,414.4265 h 1.0000 l 0.1029,1.0294 h 0.0441 c 0.4706,-0.5147 1.0221,-0.8603 1.0221 -0.8603c 0.5515,-0.3456 1.1985,-0.3456 1.1985 -0.3456c 0.8235,0.0000 1.2868,0.3603 1.2868 0.3603c 0.4632,0.3603 0.6838,1.0074 0.6838 1.0074c 0.5588,-0.6176 1.1250,-0.9926 1.1250 -0.9926c 0.5662,-0.3750 1.2279,-0.3750 1.2279 -0.3750c 1.1029,0.0000 1.6397,0.7059 1.6397 0.7059c 0.5368,0.7059 0.5368,2.0882 0.5368 2.0882v 4.5294 h -1.2059 v -4.3676 c 0.0000,-1.0147 -0.3235,-1.4632 -0.3235 -1.4632c -0.3235,-0.4485 -1.0000,-0.4485 -1.0000 -0.4485c -0.8088,-0.0000 -1.7941,1.1029 -1.7941 1.1029v 5.1765 h -1.2059 v -4.3676 c 0.0000,-1.0147 -0.3235,-1.4632 -0.3235 -1.4632c -0.3235,-0.4485 -1.0147,-0.4485 -1.0147 -0.4485c -0.8088,-0.0000 -1.7941,1.1029 -1.7941 1.1029v 5.1765 h -1.2059 v -7.1471 ZM 39.6176,421.5735 ZM 40.6324,419.9559 c 0.4706,0.3824 0.9632,0.6176 0.9632 0.6176c 0.4926,0.2353 1.1397,0.2353 1.1397 0.2353c 0.7059,0.0000 1.0588,-0.3235 1.0588 -0.3235c 0.3529,-0.3235 0.3529,-0.7941 0.3529 -0.7941c 0.0000,-0.2794 -0.1471,-0.4853 -0.1471 -0.4853c -0.1471,-0.2059 -0.3750,-0.3603 -0.3750 -0.3603c -0.2279,-0.1544 -0.5221,-0.2721 -0.5221 -0.2721l -0.5882,-0.2353 c -0.3824,-0.1324 -0.7647,-0.3015 -0.7647 -0.3015c -0.3824,-0.1691 -0.6838,-0.4118 -0.6838 -0.4118c -0.3015,-0.2426 -0.4926,-0.5662 -0.4926 -0.5662c -0.1912,-0.3235 -0.1912,-0.7794 -0.1912 -0.7794c 0.0000,-0.4265 0.1691,-0.8015 0.1691 -0.8015c 0.1691,-0.3750 0.4853,-0.6471 0.4853 -0.6471c 0.3162,-0.2721 0.7721,-0.4265 0.7721 -0.4265c 0.4559,-0.1544 1.0294,-0.1544 1.0294 -0.1544c 0.6765,0.0000 1.2426,0.2353 1.2426 0.2353c 0.5662,0.2353 0.9779,0.5735 0.9779 0.5735l -0.5735,0.7647 c -0.3676,-0.2794 -0.7647,-0.4559 -0.7647 -0.4559c -0.3971,-0.1765 -0.8676,-0.1765 -0.8676 -0.1765c -0.6765,-0.0000 -0.9926,0.3088 -0.9926 0.3088c -0.3162,0.3088 -0.3162,0.7206 -0.3162 0.7206c 0.0000,0.2500 0.1324,0.4338 0.1324 0.4338c 0.1324,0.1838 0.3529,0.3235 0.3529 0.3235c 0.2206,0.1397 0.5074,0.2500 0.5074 0.2500c 0.2868,0.1103 0.5956,0.2279 0.5956 0.2279c 0.3824,0.1471 0.7721,0.3088 0.7721 0.3088c 0.3897,0.1618 0.6985,0.4044 0.6985 0.4044c 0.3088,0.2426 0.5074,0.5956 0.5074 0.5956c 0.1985,0.3529 0.1985,0.8529 0.1985 0.8529c 0.0000,0.4412 -0.1691,0.8235 -0.1691 0.8235c -0.1691,0.3824 -0.5000,0.6765 -0.5000 0.6765c -0.3309,0.2941 -0.8235,0.4632 -0.8235 0.4632c -0.4926,0.1691 -1.1250,0.1691 -1.1250 0.1691c -0.7647,-0.0000 -1.4559,-0.2794 -1.4559 -0.2794c -0.6912,-0.2794 -1.2059,-0.7059 -1.2059 -0.7059Z"/></g><g stroke-linejoin="bevel" stroke-opacity="0.0" fill-opacity="1.0" stroke="rgb(0,0,0)" stroke-width="0.0" fill="rgb(0,0,0)" stroke-linecap="butt" stroke-miterlimit="10.0"><path d="M 10.6324,298.3235 ZM 11.7941,297.3235 h 2.1471 v -6.9118 h -1.7059 v -0.7794 c 0.6471,-0.1176 1.1250,-0.2868 1.1250 -0.2868c 0.4779,-0.1691 0.8603,-0.4044 0.8603 -0.4044h 0.9265 v 8.3824 h 1.9412 v 1.0000 h -5.2941 v -1.0000 ZM 17.9412,298.3235 ZM 21.6029,298.5000 c -1.4265,-0.0000 -2.2206,-1.2647 -2.2206 -1.2647c -0.7941,-1.2647 -0.7941,-3.6324 -0.7941 -3.6324c 0.0000,-2.3676 0.7941,-3.6029 0.7941 -3.6029c 0.7941,-1.2353 2.2206,-1.2353 2.2206 -1.2353c 1.4118,0.0000 2.2059,1.2353 2.2059 1.2353c 0.7941,1.2353 0.7941,3.6029 0.7941 3.6029c 0.0000,2.3676 -0.7941,3.6324 -0.7941 3.6324c -0.7941,1.2647 -2.2059,1.2647 -2.2059 1.2647ZM 21.6029,298.5000 ZM 21.6029,297.5294 c 0.4118,0.0000 0.7426,-0.2279 0.7426 -0.2279c 0.3309,-0.2279 0.5735,-0.7059 0.5735 -0.7059c 0.2426,-0.4779 0.3750,-1.2206 0.3750 -1.2206c 0.1324,-0.7426 0.1324,-1.7721 0.1324 -1.7721c 0.0000,-1.0294 -0.1324,-1.7647 -0.1324 -1.7647c -0.1324,-0.7353 -0.3750,-1.1985 -0.3750 -1.1985c -0.2426,-0.4632 -0.5735,-0.6838 -0.5735 -0.6838c -0.3309,-0.2206 -0.7426,-0.2206 -0.7426 -0.2206c -0.4118,-0.0000 -0.7500,0.2206 -0.7500 0.2206c -0.3382,0.2206 -0.5809,0.6838 -0.5809 0.6838c -0.2426,0.4632 -0.3750,1.1985 -0.3750 1.1985c -0.1324,0.7353 -0.1324,1.7647 -0.1324 1.7647c 0.0000,2.0588 0.5074,2.9926 0.5074 2.9926c 0.5074,0.9338 1.3309,0.9338 1.3309 0.9338ZM 28.2206,298.3235 ZM 29.4265,291.1765 h 1.0000 l 0.1029,1.0294 h 0.0441 c 0.4706,-0.5147 1.0221,-0.8603 1.0221 -0.8603c 0.5515,-0.3456 1.1985,-0.3456 1.1985 -0.3456c 0.8235,0.0000 1.2868,0.3603 1.2868 0.3603c 0.4632,0.3603 0.6838,1.0074 0.6838 1.0074c 0.5588,-0.6176 1.1250,-0.9926 1.1250 -0.9926c 0.5662,-0.3750 1.2279,-0.3750 1.2279 -0.3750c 1.1029,0.0000 1.6397,0.7059 1.6397 0.7059c 0.5368,0.7059 0.5368,2.0882 0.5368 2.0882v 4.5294 h -1.2059 v -4.3676 c 0.0000,-1.0147 -0.3235,-1.4632 -0.3235 -1.4632c -0.3235,-0.4485 -1.0000,-0.4485 -1.0000 -0.4485c -0.8088,-0.0000 -1.7941,1.1029 -1.7941 1.1029v 5.1765 h -1.2059 v -4.3676 c 0.0000,-1.0147 -0.3235,-1.4632 -0.3235 -1.4632c -0.3235,-0.4485 -1.0147,-0.4485 -1.0147 -0.4485c -0.8088,-0.0000 -1.7941,1.1029 -1.7941 1.1029v 5.1765 h -1.2059 v -7.1471 ZM 40.4118,298.3235 ZM 41.4265,296.7059 c 0.4706,0.3824 0.9632,0.6176 0.9632 0.6176c 0.4926,0.2353 1.1397,0.2353 1.1397 0.2353c 0.7059,0.0000 1.0588,-0.3235 1.0588 -0.3235c 0.3529,-0.3235 0.3529,-0.7941 0.3529 -0.7941c 0.0000,-0.2794 -0.1471,-0.4853 -0.1471 -0.4853c -0.1471,-0.2059 -0.3750,-0.3603 -0.3750 -0.3603c -0.2279,-0.1544 -0.5221,-0.2721 -0.5221 -0.2721l -0.5882,-0.2353 c -0.3824,-0.1324 -0.7647,-0.3015 -0.7647 -0.3015c -0.3824,-0.1691 -0.6838,-0.4118 -0.6838 -0.4118c -0.3015,-0.2426 -0.4926,-0.5662 -0.4926 -0.5662c -0.1912,-0.3235 -0.1912,-0.7794 -0.1912 -0.7794c 0.0000,-0.4265 0.1691,-0.8015 0.1691 -0.8015c 0.1691,-0.3750 0.4853,-0.6471 0.4853 -0.6471c 0.3162,-0.2721 0.7721,-0.4265 0.7721 -0.4265c 0.4559,-0.1544 1.0294,-0.1544 1.0294 -0.1544c 0.6765,0.0000 1.2426,0.2353 1.2426 0.2353c 0.5662,0.2353 0.9779,0.5735 0.9779 0.5735l -0.5735,0.7647 c -0.3676,-0.2794 -0.7647,-0.4559 -0.7647 -0.4559c -0.3971,-0.1765 -0.8676,-0.1765 -0.8676 -0.1765c -0.6765,-0.0000 -0.9926,0.3088 -0.9926 0.3088c -0.3162,0.3088 -0.3162,0.7206 -0.3162 0.7206c 0.0000,0.2500 0.1324,0.4338 0.1324 0.4338c 0.1324,0.1838 0.3529,0.3235 0.3529 0.3235c 0.2206,0.1397 0.5074,0.2500 0.5074 0.2500c 0.2868,0.1103 0.5956,0.2279 0.5956 0.2279c 0.3824,0.1471 0.7721,0.3088 0.7721 0.3088c 0.3897,0.1618 0.6985,0.4044 0.6985 0.4044c 0.3088,0.2426 0.5074,0.5956 0.5074 0.5956c 0.1985,0.3529 0.1985,0.8529 0.1985 0.8529c 0.0000,0.4412 -0.1691,0.8235 -0.1691 0.8235c -0.1691,0.3824 -0.5000,0.6765 -0.5000 0.6765c -0.3309,0.2941 -0.8235,0.4632 -0.8235 0.4632c -0.4926,0.1691 -1.1250,0.1691 -1.1250 0.1691c -0.7647,-0.0000 -1.4559,-0.2794 -1.4559 -0.2794c -0.6912,-0.2794 -1.2059,-0.7059 -1.2059 -0.7059Z"/></g><g stroke-linejoin="bevel" stroke-opacity="0.0" fill-opacity="1.0" stroke="rgb(0,0,0)" stroke-width="0.0" fill="rgb(0,0,0)" stroke-linecap="butt" stroke-miterlimit="10.0"><path d="M 10.6324,175.0735 ZM 11.7941,174.0735 h 2.1471 v -6.9118 h -1.7059 v -0.7794 c 0.6471,-0.1176 1.1250,-0.2868 1.1250 -0.2868c 0.4779,-0.1691 0.8603,-0.4044 0.8603 -0.4044h 0.9265 v 8.3824 h 1.9412 v 1.0000 h -5.2941 v -1.0000 ZM 17.9412,175.0735 ZM 18.8971,173.1765 c 0.4118,0.4265 0.9779,0.7500 0.9779 0.7500c 0.5662,0.3235 1.3897,0.3235 1.3897 0.3235c 0.4265,0.0000 0.8015,-0.1544 0.8015 -0.1544c 0.3750,-0.1544 0.6544,-0.4338 0.6544 -0.4338c 0.2794,-0.2794 0.4412,-0.6765 0.4412 -0.6765c 0.1618,-0.3971 0.1618,-0.8824 0.1618 -0.8824c 0.0000,-0.9706 -0.5441,-1.5147 -0.5441 -1.5147c -0.5441,-0.5441 -1.4559,-0.5441 -1.4559 -0.5441c -0.4853,-0.0000 -0.8309,0.1471 -0.8309 0.1471c -0.3456,0.1471 -0.7721,0.4265 -0.7721 0.4265l -0.6471,-0.4118 l 0.3088,-4.5147 h 4.6912 v 1.0441 h -3.6324 l -0.2500,2.7794 c 0.3382,-0.1765 0.6765,-0.2794 0.6765 -0.2794c 0.3382,-0.1029 0.7647,-0.1029 0.7647 -0.1029c 0.6029,0.0000 1.1324,0.1765 1.1324 0.1765c 0.5294,0.1765 0.9265,0.5368 0.9265 0.5368c 0.3971,0.3603 0.6250,0.9118 0.6250 0.9118c 0.2279,0.5515 0.2279,1.3162 0.2279 1.3162c 0.0000,0.7647 -0.2647,1.3529 -0.2647 1.3529c -0.2647,0.5882 -0.7059,0.9926 -0.7059 0.9926c -0.4412,0.4044 -1.0074,0.6176 -1.0074 0.6176c -0.5662,0.2132 -1.1838,0.2132 -1.1838 0.2132c -0.5588,-0.0000 -1.0221,-0.1103 -1.0221 -0.1103c -0.4632,-0.1103 -0.8382,-0.2868 -0.8382 -0.2868c -0.3750,-0.1765 -0.6765,-0.4044 -0.6765 -0.4044c -0.3015,-0.2279 -0.5368,-0.4779 -0.5368 -0.4779ZM 28.2206,175.0735 ZM 29.4265,167.9265 h 1.0000 l 0.1029,1.0294 h 0.0441 c 0.4706,-0.5147 1.0221,-0.8603 1.0221 -0.8603c 0.5515,-0.3456 1.1985,-0.3456 1.1985 -0.3456c 0.8235,0.0000 1.2868,0.3603 1.2868 0.3603c 0.4632,0.3603 0.6838,1.0074 0.6838 1.0074c 0.5588,-0.6176 1.1250,-0.9926 1.1250 -0.9926c 0.5662,-0.3750 1.2279,-0.3750 1.2279 -0.3750c 1.1029,0.0000 1.6397,0.7059 1.6397 0.7059c 0.5368,0.7059 0.5368,2.0882 0.5368 2.0882v 4.5294 h -1.2059 v -4.3676 c 0.0000,-1.0147 -0.3235,-1.4632 -0.3235 -1.4632c -0.3235,-0.4485 -1.0000,-0.4485 -1.0000 -0.4485c -0.8088,-0.0000 -1.7941,1.1029 -1.7941 1.1029v 5.1765 h -1.2059 v -4.3676 c 0.0000,-1.0147 -0.3235,-1.4632 -0.3235 -1.4632c -0.3235,-0.4485 -1.0147,-0.4485 -1.0147 -0.4485c -0.8088,-0.0000 -1.7941,1.1029 -1.7941 1.1029v 5.1765 h -1.2059 v -7.1471 ZM 40.4118,175.0735 ZM 41.4265,173.4559 c 0.4706,0.3824 0.9632,0.6176 0.9632 0.6176c 0.4926,0.2353 1.1397,0.2353 1.1397 0.2353c 0.7059,0.0000 1.0588,-0.3235 1.0588 -0.3235c 0.3529,-0.3235 0.3529,-0.7941 0.3529 -0.7941c 0.0000,-0.2794 -0.1471,-0.4853 -0.1471 -0.4853c -0.1471,-0.2059 -0.3750,-0.3603 -0.3750 -0.3603c -0.2279,-0.1544 -0.5221,-0.2721 -0.5221 -0.2721l -0.5882,-0.2353 c -0.3824,-0.1324 -0.7647,-0.3015 -0.7647 -0.3015c -0.3824,-0.1691 -0.6838,-0.4118 -0.6838 -0.4118c -0.3015,-0.2426 -0.4926,-0.5662 -0.4926 -0.5662c -0.1912,-0.3235 -0.1912,-0.7794 -0.1912 -0.7794c 0.0000,-0.4265 0.1691,-0.8015 0.1691 -0.8015c 0.1691,-0.3750 0.4853,-0.6471 0.4853 -0.6471c 0.3162,-0.2721 0.7721,-0.4265 0.7721 -0.4265c 0.4559,-0.1544 1.0294,-0.1544 1.0294 -0.1544c 0.6765,0.0000 1.2426,0.2353 1.2426 0.2353c 0.5662,0.2353 0.9779,0.5735 0.9779 0.5735l -0.5735,0.7647 c -0.3676,-0.2794 -0.7647,-0.4559 -0.7647 -0.4559c -0.3971,-0.1765 -0.8676,-0.1765 -0.8676 -0.1765c -0.6765,-0.0000 -0.9926,0.3088 -0.9926 0.3088c -0.3162,0.3088 -0.3162,0.7206 -0.3162 0.7206c 0.0000,0.2500 0.1324,0.4338 0.1324 0.4338c 0.1324,0.1838 0.3529,0.3235 0.3529 0.3235c 0.2206,0.1397 0.5074,0.2500 0.5074 0.2500c 0.2868,0.1103 0.5956,0.2279 0.5956 0.2279c 0.3824,0.1471 0.7721,0.3088 0.7721 0.3088c 0.3897,0.1618 0.6985,0.4044 0.6985 0.4044c 0.3088,0.2426 0.5074,0.5956 0.5074 0.5956c 0.1985,0.3529 0.1985,0.8529 0.1985 0.8529c 0.0000,0.4412 -0.1691,0.8235 -0.1691 0.8235c -0.1691,0.3824 -0.5000,0.6765 -0.5000 0.6765c -0.3309,0.2941 -0.8235,0.4632 -0.8235 0.4632c -0.4926,0.1691 -1.1250,0.1691 -1.1250 0.1691c -0.7647,-0.0000 -1.4559,-0.2794 -1.4559 -0.2794c -0.6912,-0.2794 -1.2059,-0.7059 -1.2059 -0.7059Z"/></g><g stroke-linejoin="bevel" stroke-opacity="0.0" fill-opacity="1.0" stroke="rgb(0,0,0)" stroke-width="0.0" fill="rgb(0,0,0)" stroke-linecap="butt" stroke-miterlimit="10.0"><path d="M 10.0000,51.8235 ZM 10.5882,51.1029 c 1.0588,-1.0588 1.8824,-1.9118 1.8824 -1.9118c 0.8235,-0.8529 1.3824,-1.5809 1.3824 -1.5809c 0.5588,-0.7279 0.8529,-1.3382 0.8529 -1.3382c 0.2941,-0.6103 0.2941,-1.1838 0.2941 -1.1838c 0.0000,-0.8088 -0.4412,-1.3235 -0.4412 -1.3235c -0.4412,-0.5147 -1.3382,-0.5147 -1.3382 -0.5147c -0.5882,-0.0000 -1.0882,0.3309 -1.0882 0.3309c -0.5000,0.3309 -0.9118,0.8015 -0.9118 0.8015l -0.6912,-0.6912 c 0.5882,-0.6471 1.2500,-1.0368 1.2500 -1.0368c 0.6618,-0.3897 1.5882,-0.3897 1.5882 -0.3897c 1.3088,0.0000 2.0588,0.7574 2.0588 0.7574c 0.7500,0.7574 0.7500,2.0074 0.7500 2.0074c 0.0000,0.6618 -0.2868,1.3309 -0.2868 1.3309c -0.2868,0.6691 -0.7941,1.3824 -0.7941 1.3824c -0.5074,0.7132 -1.2059,1.4853 -1.2059 1.4853c -0.6985,0.7721 -1.5368,1.6397 -1.5368 1.6397c 0.3824,-0.0294 0.7941,-0.0588 0.7941 -0.0588c 0.4118,-0.0294 0.7794,-0.0294 0.7794 -0.0294h 2.7206 v 1.0441 h -6.0588 v -0.7206 ZM 17.3088,51.8235 ZM 20.9706,52.0000 c -1.4265,-0.0000 -2.2206,-1.2647 -2.2206 -1.2647c -0.7941,-1.2647 -0.7941,-3.6324 -0.7941 -3.6324c 0.0000,-2.3676 0.7941,-3.6029 0.7941 -3.6029c 0.7941,-1.2353 2.2206,-1.2353 2.2206 -1.2353c 1.4118,0.0000 2.2059,1.2353 2.2059 1.2353c 0.7941,1.2353 0.7941,3.6029 0.7941 3.6029c 0.0000,2.3676 -0.7941,3.6324 -0.7941 3.6324c -0.7941,1.2647 -2.2059,1.2647 -2.2059 1.2647ZM 20.9706,52.0000 ZM 20.9706,51.0294 c 0.4118,0.0000 0.7426,-0.2279 0.7426 -0.2279c 0.3309,-0.2279 0.5735,-0.7059 0.5735 -0.7059c 0.2426,-0.4779 0.3750,-1.2206 0.3750 -1.2206c 0.1324,-0.7426 0.1324,-1.7721 0.1324 -1.7721c 0.0000,-1.0294 -0.1324,-1.7647 -0.1324 -1.7647c -0.1324,-0.7353 -0.3750,-1.1985 -0.3750 -1.1985c -0.2426,-0.4632 -0.5735,-0.6838 -0.5735 -0.6838c -0.3309,-0.2206 -0.7426,-0.2206 -0.7426 -0.2206c -0.4118,-0.0000 -0.7500,0.2206 -0.7500 0.2206c -0.3382,0.2206 -0.5809,0.6838 -0.5809 0.6838c -0.2426,0.4632 -0.3750,1.1985 -0.3750 1.1985c -0.1324,0.7353 -0.1324,1.7647 -0.1324 1.7647c 0.0000,2.0588 0.5074,2.9926 0.5074 2.9926c 0.5074,0.9338 1.3309,0.9338 1.3309 0.9338ZM 27.5882,51.8235 ZM 28.7941,44.6765 h 1.0000 l 0.1029,1.0294 h 0.0441 c 0.4706,-0.5147 1.0221,-0.8603 1.0221 -0.8603c 0.5515,-0.3456 1.1985,-0.3456 1.1985 -0.3456c 0.8235,0.0000 1.2868,0.3603 1.2868 0.3603c 0.4632,0.3603 0.6838,1.0074 0.6838 1.0074c 0.5588,-0.6176 1.1250,-0.9926 1.1250 -0.9926c 0.5662,-0.3750 1.2279,-0.3750 1.2279 -0.3750c 1.1029,0.0000 1.6397,0.7059 1.6397 0.7059c 0.5368,0.7059 0.5368,2.0882 0.5368 2.0882v 4.5294 h -1.2059 v -4.3676 c 0.0000,-1.0147 -0.3235,-1.4632 -0.3235 -1.4632c -0.3235,-0.4485 -1.0000,-0.4485 -1.0000 -0.4485c -0.8088,-0.0000 -1.7941,1.1029 -1.7941 1.1029v 5.1765 h -1.2059 v -4.3676 c 0.0000,-1.0147 -0.3235,-1.4632 -0.3235 -1.4632c -0.3235,-0.4485 -1.0147,-0.4485 -1.0147 -0.4485c -0.8088,-0.0000 -1.7941,1.1029 -1.7941 1.1029v 5.1765 h -1.2059 v -7.1471 ZM 39.7794,51.8235 ZM 40.7941,50.2059 c 0.4706,0.3824 0.9632,0.6176 0.9632 0.6176c 0.4926,0.2353 1.1397,0.2353 1.1397 0.2353c 0.7059,0.0000 1.0588,-0.3235 1.0588 -0.3235c 0.3529,-0.3235 0.3529,-0.7941 0.3529 -0.7941c 0.0000,-0.2794 -0.1471,-0.4853 -0.1471 -0.4853c -0.1471,-0.2059 -0.3750,-0.3603 -0.3750 -0.3603c -0.2279,-0.1544 -0.5221,-0.2721 -0.5221 -0.2721l -0.5882,-0.2353 c -0.3824,-0.1324 -0.7647,-0.3015 -0.7647 -0.3015c -0.3824,-0.1691 -0.6838,-0.4118 -0.6838 -0.4118c -0.3015,-0.2426 -0.4926,-0.5662 -0.4926 -0.5662c -0.1912,-0.3235 -0.1912,-0.7794 -0.1912 -0.7794c 0.0000,-0.4265 0.1691,-0.8015 0.1691 -0.8015c 0.1691,-0.3750 0.4853,-0.6471 0.4853 -0.6471c 0.3162,-0.2721 0.7721,-0.4265 0.7721 -0.4265c 0.4559,-0.1544 1.0294,-0.1544 1.0294 -0.1544c 0.6765,0.0000 1.2426,0.2353 1.2426 0.2353c 0.5662,0.2353 0.9779,0.5735 0.9779 0.5735l -0.5735,0.7647 c -0.3676,-0.2794 -0.7647,-0.4559 -0.7647 -0.4559c -0.3971,-0.1765 -0.8676,-0.1765 -0.8676 -0.1765c -0.6765,-0.0000 -0.9926,0.3088 -0.9926 0.3088c -0.3162,0.3088 -0.3162,0.7206 -0.3162 0.7206c 0.0000,0.2500 0.1324,0.4338 0.1324 0.4338c 0.1324,0.1838 0.3529,0.3235 0.3529 0.3235c 0.2206,0.1397 0.5074,0.2500 0.5074 0.2500c 0.2868,0.1103 0.5956,0.2279 0.5956 0.2279c 0.3824,0.1471 0.7721,0.3088 0.7721 0.3088c 0.3897,0.1618 0.6985,0.4044 0.6985 0.4044c 0.3088,0.2426 0.5074,0.5956 0.5074 0.5956c 0.1985,0.3529 0.1985,0.8529 0.1985 0.8529c 0.0000,0.4412 -0.1691,0.8235 -0.1691 0.8235c -0.1691,0.3824 -0.5000,0.6765 -0.5000 0.6765c -0.3309,0.2941 -0.8235,0.4632 -0.8235 0.4632c -0.4926,0.1691 -1.1250,0.1691 -1.1250 0.1691c -0.7647,-0.0000 -1.4559,-0.2794 -1.4559 -0.2794c -0.6912,-0.2794 -1.2059,-0.7059 -1.2059 -0.7059Z"/></g><g stroke-linejoin="miter" stroke-opacity="1.0" fill-opacity="0.0" stroke="rgb(0,0,0)" stroke-width="0.9999999999999997" fill="rgb(0,0,0)" stroke-linecap="square" stroke-miterlimit="10.0"><path d="M 54.9412,540.0000 h 693.6050 "/></g><g stroke-linejoin="bevel" stroke-opacity="0.0" fill-opacity="1.0" stroke="rgb(0,0,0)" stroke-width="0.0" fill="rgb(0,0,0)" stroke-linecap="butt" stroke-miterlimit="10.0"><path d="M 193.9139,566.0000 ZM 196.6702,566.6891 v 2.7563 h -1.3782 v -11.6134 h 1.1429 l 0.1176,0.9412 h 0.0504 c 0.5546,-0.4706 1.2185,-0.8067 1.2185 -0.8067c 0.6639,-0.3361 1.3866,-0.3361 1.3866 -0.3361c 0.7899,0.0000 1.3950,0.2941 1.3950 0.2941c 0.6050,0.2941 1.0084,0.8403 1.0084 0.8403c 0.4034,0.5462 0.6134,1.3109 0.6134 1.3109c 0.2101,0.7647 0.2101,1.7227 0.2101 1.7227c 0.0000,1.0420 -0.2857,1.8571 -0.2857 1.8571c -0.2857,0.8151 -0.7731,1.3866 -0.7731 1.3866c -0.4874,0.5714 -1.1261,0.8655 -1.1261 0.8655c -0.6387,0.2941 -1.3445,0.2941 -1.3445 0.2941c -0.5714,-0.0000 -1.1345,-0.2521 -1.1345 -0.2521c -0.5630,-0.2521 -1.1345,-0.6891 -1.1345 -0.6891ZM 196.6702,566.6891 ZM 196.6702,564.1849 c 0.5546,0.4706 1.0756,0.6639 1.0756 0.6639c 0.5210,0.1933 0.9244,0.1933 0.9244 0.1933c 0.5042,0.0000 0.9328,-0.2269 0.9328 -0.2269c 0.4286,-0.2269 0.7395,-0.6387 0.7395 -0.6387c 0.3109,-0.4118 0.4874,-1.0168 0.4874 -1.0168c 0.1765,-0.6050 0.1765,-1.3613 0.1765 -1.3613c 0.0000,-0.6723 -0.1176,-1.2269 -0.1176 -1.2269c -0.1176,-0.5546 -0.3782,-0.9496 -0.3782 -0.9496c -0.2605,-0.3950 -0.6723,-0.6134 -0.6723 -0.6134c -0.4118,-0.2185 -0.9832,-0.2185 -0.9832 -0.2185c -0.5210,-0.0000 -1.0504,0.2857 -1.0504 0.2857c -0.5294,0.2857 -1.1345,0.8235 -1.1345 0.8235v 4.2857 ZM 203.2416,566.0000 ZM 205.3256,556.1513 c -0.4034,-0.0000 -0.6807,-0.2521 -0.6807 -0.2521c -0.2773,-0.2521 -0.2773,-0.6387 -0.2773 -0.6387c 0.0000,-0.4034 0.2773,-0.6471 0.2773 -0.6471c 0.2773,-0.2437 0.6807,-0.2437 0.6807 -0.2437c 0.4034,0.0000 0.6807,0.2437 0.6807 0.2437c 0.2773,0.2437 0.2773,0.6471 0.2773 0.6471c 0.0000,0.3866 -0.2773,0.6387 -0.2773 0.6387c -0.2773,0.2521 -0.6807,0.2521 -0.6807 0.2521ZM 205.3256,556.1513 ZM 204.6197,557.8319 h 1.3782 v 8.1681 h -1.3782 v -8.1681 ZM 207.3761,566.0000 ZM 210.1324,566.6891 v 2.7563 h -1.3782 v -11.6134 h 1.1429 l 0.1176,0.9412 h 0.0504 c 0.5546,-0.4706 1.2185,-0.8067 1.2185 -0.8067c 0.6639,-0.3361 1.3866,-0.3361 1.3866 -0.3361c 0.7899,0.0000 1.3950,0.2941 1.3950 0.2941c 0.6050,0.2941 1.0084,0.8403 1.0084 0.8403c 0.4034,0.5462 0.6134,1.3109 0.6134 1.3109c 0.2101,0.7647 0.2101,1.7227 0.2101 1.7227c 0.0000,1.0420 -0.2857,1.8571 -0.2857 1.8571c -0.2857,0.8151 -0.7731,1.3866 -0.7731 1.3866c -0.4874,0.5714 -1.1261,0.8655 -1.1261 0.8655c -0.6387,0.2941 -1.3445,0.2941 -1.3445 0.2941c -0.5714,-0.0000 -1.1345,-0.2521 -1.1345 -0.2521c -0.5630,-0.2521 -1.1345,-0.6891 -1.1345 -0.6891ZM 210.1324,566.6891 ZM 210.1324,564.1849 c 0.5546,0.4706 1.0756,0.6639 1.0756 0.6639c 0.5210,0.1933 0.9244,0.1933 0.9244 0.1933c 0.5042,0.0000 0.9328,-0.2269 0.9328 -0.2269c 0.4286,-0.2269 0.7395,-0.6387 0.7395 -0.6387c 0.3109,-0.4118 0.4874,-1.0168 0.4874 -1.0168c 0.1765,-0.6050 0.1765,-1.3613 0.1765 -1.3613c 0.0000,-0.6723 -0.1176,-1.2269 -0.1176 -1.2269c -0.1176,-0.5546 -0.3782,-0.9496 -0.3782 -0.9496c -0.2605,-0.3950 -0.6723,-0.6134 -0.6723 -0.6134c -0.4118,-0.2185 -0.9832,-0.2185 -0.9832 -0.2185c -0.5210,-0.0000 -1.0504,0.2857 -1.0504 0.2857c -0.5294,0.2857 -1.1345,0.8235 -1.1345 0.8235v 4.2857 ZM 216.7038,566.0000 ZM 217.4769,561.9328 c 0.0000,-1.0084 0.3109,-1.8067 0.3109 -1.8067c 0.3109,-0.7983 0.8235,-1.3529 0.8235 -1.3529c 0.5126,-0.5546 1.1681,-0.8487 1.1681 -0.8487c 0.6555,-0.2941 1.3613,-0.2941 1.3613 -0.2941c 0.7731,0.0000 1.3866,0.2689 1.3866 0.2689c 0.6134,0.2689 1.0252,0.7731 1.0252 0.7731c 0.4118,0.5042 0.6303,1.2101 0.6303 1.2101c 0.2185,0.7059 0.2185,1.5798 0.2185 1.5798c 0.0000,0.4538 -0.0504,0.7563 -0.0504 0.7563h -5.5126 c 0.0840,1.3277 0.8151,2.1008 0.8151 2.1008c 0.7311,0.7731 1.9076,0.7731 1.9076 0.7731c 0.5882,0.0000 1.0840,-0.1765 1.0840 -0.1765c 0.4958,-0.1765 0.9496,-0.4622 0.9496 -0.4622l 0.4874,0.9076 c -0.5378,0.3361 -1.1933,0.5882 -1.1933 0.5882c -0.6555,0.2521 -1.4958,0.2521 -1.4958 0.2521c -0.8235,-0.0000 -1.5378,-0.2941 -1.5378 -0.2941c -0.7143,-0.2941 -1.2437,-0.8403 -1.2437 -0.8403c -0.5294,-0.5462 -0.8319,-1.3361 -0.8319 -1.3361c -0.3025,-0.7899 -0.3025,-1.7983 -0.3025 -1.7983ZM 217.4769,561.9328 ZM 223.1912,561.3109 c 0.0000,-1.2605 -0.5294,-1.9244 -0.5294 -1.9244c -0.5294,-0.6639 -1.4874,-0.6639 -1.4874 -0.6639c -0.4370,-0.0000 -0.8319,0.1765 -0.8319 0.1765c -0.3950,0.1765 -0.7143,0.5042 -0.7143 0.5042c -0.3193,0.3277 -0.5294,0.8067 -0.5294 0.8067c -0.2101,0.4790 -0.2773,1.1008 -0.2773 1.1008h 4.3697 ZM 225.0399,566.0000 ZM 225.8298,561.9328 c 0.0000,-0.9916 0.2941,-1.7899 0.2941 -1.7899c 0.2941,-0.7983 0.7815,-1.3529 0.7815 -1.3529c 0.4874,-0.5546 1.1261,-0.8571 1.1261 -0.8571c 0.6387,-0.3025 1.3445,-0.3025 1.3445 -0.3025c 0.7059,0.0000 1.2269,0.2521 1.2269 0.2521c 0.5210,0.2521 1.0588,0.6891 1.0588 0.6891l -0.0672,-1.3950 v -3.1429 h 1.3950 v 11.9664 h -1.1429 l -0.1176,-0.9580 h -0.0504 c -0.4874,0.4706 -1.1176,0.8151 -1.1176 0.8151c -0.6303,0.3445 -1.3529,0.3445 -1.3529 0.3445c -1.5462,-0.0000 -2.4622,-1.1092 -2.4622 -1.1092c -0.9160,-1.1092 -0.9160,-3.1597 -0.9160 -3.1597ZM 225.8298,561.9328 ZM 227.2584,561.9160 c 0.0000,1.4790 0.5882,2.3025 0.5882 2.3025c 0.5882,0.8235 1.6639,0.8235 1.6639 0.8235c 0.5714,0.0000 1.0756,-0.2773 1.0756 -0.2773c 0.5042,-0.2773 1.0084,-0.8487 1.0084 -0.8487v -4.2689 c -0.5210,-0.4706 -1.0000,-0.6639 -1.0000 -0.6639c -0.4790,-0.1933 -0.9832,-0.1933 -0.9832 -0.1933c -0.4874,-0.0000 -0.9160,0.2269 -0.9160 0.2269c -0.4286,0.2269 -0.7479,0.6387 -0.7479 0.6387c -0.3193,0.4118 -0.5042,0.9832 -0.5042 0.9832c -0.1849,0.5714 -0.1849,1.2773 -0.1849 1.2773ZM 234.3676,566.0000 ZM 237.9643,568.9580 c -1.0420,-1.6807 -1.6303,-3.5462 -1.6303 -3.5462c -0.5882,-1.8655 -0.5882,-4.0840 -0.5882 -4.0840c 0.0000,-2.2185 0.5882,-4.0756 0.5882 -4.0756c 0.5882,-1.8571 1.6303,-3.5546 1.6303 -3.5546l 0.8571,0.4034 c -0.9748,1.6134 -1.4538,3.4538 -1.4538 3.4538c -0.4790,1.8403 -0.4790,3.7731 -0.4790 3.7731c 0.0000,1.9328 0.4790,3.7731 0.4790 3.7731c 0.4790,1.8403 1.4538,3.4538 1.4538 3.4538l -0.8571,0.4034 h 0.0000 ZM 239.4601,566.0000 ZM 240.8382,557.8319 h 1.1429 l 0.1176,1.1765 h 0.0504 c 0.5378,-0.5882 1.1681,-0.9832 1.1681 -0.9832c 0.6303,-0.3950 1.3697,-0.3950 1.3697 -0.3950c 0.9412,0.0000 1.4706,0.4118 1.4706 0.4118c 0.5294,0.4118 0.7815,1.1513 0.7815 1.1513c 0.6387,-0.7059 1.2857,-1.1345 1.2857 -1.1345c 0.6471,-0.4286 1.4034,-0.4286 1.4034 -0.4286c 1.2605,0.0000 1.8739,0.8067 1.8739 0.8067c 0.6134,0.8067 0.6134,2.3866 0.6134 2.3866v 5.1765 h -1.3782 v -4.9916 c 0.0000,-1.1597 -0.3697,-1.6723 -0.3697 -1.6723c -0.3697,-0.5126 -1.1429,-0.5126 -1.1429 -0.5126c -0.9244,-0.0000 -2.0504,1.2605 -2.0504 1.2605v 5.9160 h -1.3782 v -4.9916 c 0.0000,-1.1597 -0.3697,-1.6723 -0.3697 -1.6723c -0.3697,-0.5126 -1.1597,-0.5126 -1.1597 -0.5126c -0.9244,-0.0000 -2.0504,1.2605 -2.0504 1.2605v 5.9160 h -1.3782 v -8.1681 ZM 253.3929,566.0000 ZM 254.5525,564.1513 c 0.5378,0.4370 1.1008,0.7059 1.1008 0.7059c 0.5630,0.2689 1.3025,0.2689 1.3025 0.2689c 0.8067,0.0000 1.2101,-0.3697 1.2101 -0.3697c 0.4034,-0.3697 0.4034,-0.9076 0.4034 -0.9076c 0.0000,-0.3193 -0.1681,-0.5546 -0.1681 -0.5546c -0.1681,-0.2353 -0.4286,-0.4118 -0.4286 -0.4118c -0.2605,-0.1765 -0.5966,-0.3109 -0.5966 -0.3109l -0.6723,-0.2689 c -0.4370,-0.1513 -0.8739,-0.3445 -0.8739 -0.3445c -0.4370,-0.1933 -0.7815,-0.4706 -0.7815 -0.4706c -0.3445,-0.2773 -0.5630,-0.6471 -0.5630 -0.6471c -0.2185,-0.3697 -0.2185,-0.8908 -0.2185 -0.8908c 0.0000,-0.4874 0.1933,-0.9160 0.1933 -0.9160c 0.1933,-0.4286 0.5546,-0.7395 0.5546 -0.7395c 0.3613,-0.3109 0.8824,-0.4874 0.8824 -0.4874c 0.5210,-0.1765 1.1765,-0.1765 1.1765 -0.1765c 0.7731,0.0000 1.4202,0.2689 1.4202 0.2689c 0.6471,0.2689 1.1176,0.6555 1.1176 0.6555l -0.6555,0.8739 c -0.4202,-0.3193 -0.8739,-0.5210 -0.8739 -0.5210c -0.4538,-0.2017 -0.9916,-0.2017 -0.9916 -0.2017c -0.7731,-0.0000 -1.1345,0.3529 -1.1345 0.3529c -0.3613,0.3529 -0.3613,0.8235 -0.3613 0.8235c 0.0000,0.2857 0.1513,0.4958 0.1513 0.4958c 0.1513,0.2101 0.4034,0.3697 0.4034 0.3697c 0.2521,0.1597 0.5798,0.2857 0.5798 0.2857c 0.3277,0.1261 0.6807,0.2605 0.6807 0.2605c 0.4370,0.1681 0.8824,0.3529 0.8824 0.3529c 0.4454,0.1849 0.7983,0.4622 0.7983 0.4622c 0.3529,0.2773 0.5798,0.6807 0.5798 0.6807c 0.2269,0.4034 0.2269,0.9748 0.2269 0.9748c 0.0000,0.5042 -0.1933,0.9412 -0.1933 0.9412c -0.1933,0.4370 -0.5714,0.7731 -0.5714 0.7731c -0.3782,0.3361 -0.9412,0.5294 -0.9412 0.5294c -0.5630,0.1933 -1.2857,0.1933 -1.2857 0.1933c -0.8739,-0.0000 -1.6639,-0.3193 -1.6639 -0.3193c -0.7899,-0.3193 -1.3782,-0.8067 -1.3782 -0.8067ZM 260.4349,566.0000 ZM 261.0735,568.5546 c 0.9748,-1.6134 1.4538,-3.4538 1.4538 -3.4538c 0.4790,-1.8403 0.4790,-3.7731 0.4790 -3.7731c 0.0000,-1.9328 -0.4790,-3.7731 -0.4790 -3.7731c -0.4790,-1.8403 -1.4538,-3.4538 -1.4538 -3.4538l 0.8571,-0.4034 c 1.0420,1.6975 1.6303,3.5546 1.6303 3.5546c 0.5882,1.8571 0.5882,4.0756 0.5882 4.0756c 0.0000,2.2185 -0.5882,4.0840 -0.5882 4.0840c -0.5882,1.8655 -1.6303,3.5462 -1.6303 3.5462l -0.8571,-0.4034 h 0.0000 Z"/></g><g stroke-linejoin="bevel" stroke-opacity="0.0" fill-opacity="1.0" stroke="rgb(0,0,0)" stroke-width="0.0" fill="rgb(0,0,0)" stroke-linecap="butt" stroke-miterlimit="10.0"><path d="M 533.6912,566.0000 ZM 534.4643,561.9328 c 0.0000,-1.0252 0.3193,-1.8235 0.3193 -1.8235c 0.3193,-0.7983 0.8571,-1.3529 0.8571 -1.3529c 0.5378,-0.5546 1.2521,-0.8403 1.2521 -0.8403c 0.7143,-0.2857 1.5042,-0.2857 1.5042 -0.2857c 0.8067,0.0000 1.3866,0.2941 1.3866 0.2941c 0.5798,0.2941 1.0000,0.6807 1.0000 0.6807l -0.6891,0.8908 c -0.3697,-0.3193 -0.7647,-0.5210 -0.7647 -0.5210c -0.3950,-0.2017 -0.8824,-0.2017 -0.8824 -0.2017c -0.5546,-0.0000 -1.0252,0.2269 -1.0252 0.2269c -0.4706,0.2269 -0.8067,0.6471 -0.8067 0.6471c -0.3361,0.4202 -0.5294,1.0000 -0.5294 1.0000c -0.1933,0.5798 -0.1933,1.2857 -0.1933 1.2857c 0.0000,0.7059 0.1849,1.2773 0.1849 1.2773c 0.1849,0.5714 0.5126,0.9832 0.5126 0.9832c 0.3277,0.4118 0.7983,0.6387 0.7983 0.6387c 0.4706,0.2269 1.0252,0.2269 1.0252 0.2269c 0.5882,0.0000 1.0672,-0.2437 1.0672 -0.2437c 0.4790,-0.2437 0.8487,-0.5798 0.8487 -0.5798l 0.6218,0.9076 c -0.5546,0.4874 -1.2353,0.7731 -1.2353 0.7731c -0.6807,0.2857 -1.4202,0.2857 -1.4202 0.2857c -0.8067,-0.0000 -1.5126,-0.2857 -1.5126 -0.2857c -0.7059,-0.2857 -1.2185,-0.8319 -1.2185 -0.8319c -0.5126,-0.5462 -0.8067,-1.3445 -0.8067 -1.3445c -0.2941,-0.7983 -0.2941,-1.8067 -0.2941 -1.8067ZM 541.0021,566.0000 ZM 541.7752,561.9328 c 0.0000,-1.0252 0.3109,-1.8235 0.3109 -1.8235c 0.3109,-0.7983 0.8319,-1.3529 0.8319 -1.3529c 0.5210,-0.5546 1.2017,-0.8403 1.2017 -0.8403c 0.6807,-0.2857 1.4370,-0.2857 1.4370 -0.2857c 0.7563,0.0000 1.4370,0.2857 1.4370 0.2857c 0.6807,0.2857 1.2017,0.8403 1.2017 0.8403c 0.5210,0.5546 0.8319,1.3529 0.8319 1.3529c 0.3109,0.7983 0.3109,1.8235 0.3109 1.8235c 0.0000,1.0084 -0.3109,1.8067 -0.3109 1.8067c -0.3109,0.7983 -0.8319,1.3445 -0.8319 1.3445c -0.5210,0.5462 -1.2017,0.8319 -1.2017 0.8319c -0.6807,0.2857 -1.4370,0.2857 -1.4370 0.2857c -0.7563,-0.0000 -1.4370,-0.2857 -1.4370 -0.2857c -0.6807,-0.2857 -1.2017,-0.8319 -1.2017 -0.8319c -0.5210,-0.5462 -0.8319,-1.3445 -0.8319 -1.3445c -0.3109,-0.7983 -0.3109,-1.8067 -0.3109 -1.8067ZM 541.7752,561.9328 ZM 543.2038,561.9328 c 0.0000,0.7059 0.1681,1.2773 0.1681 1.2773c 0.1681,0.5714 0.4790,0.9832 0.4790 0.9832c 0.3109,0.4118 0.7479,0.6387 0.7479 0.6387c 0.4370,0.2269 0.9580,0.2269 0.9580 0.2269c 0.5210,0.0000 0.9580,-0.2269 0.9580 -0.2269c 0.4370,-0.2269 0.7479,-0.6387 0.7479 -0.6387c 0.3109,-0.4118 0.4790,-0.9832 0.4790 -0.9832c 0.1681,-0.5714 0.1681,-1.2773 0.1681 -1.2773c 0.0000,-0.7059 -0.1681,-1.2857 -0.1681 -1.2857c -0.1681,-0.5798 -0.4790,-1.0000 -0.4790 -1.0000c -0.3109,-0.4202 -0.7479,-0.6471 -0.7479 -0.6471c -0.4370,-0.2269 -0.9580,-0.2269 -0.9580 -0.2269c -0.5210,-0.0000 -0.9580,0.2269 -0.9580 0.2269c -0.4370,0.2269 -0.7479,0.6471 -0.7479 0.6471c -0.3109,0.4202 -0.4790,1.0000 -0.4790 1.0000c -0.1681,0.5798 -0.1681,1.2857 -0.1681 1.2857ZM 550.1113,566.0000 ZM 551.4895,557.8319 h 1.1429 l 0.1176,1.1765 h 0.0504 c 0.5882,-0.5882 1.2353,-0.9832 1.2353 -0.9832c 0.6471,-0.3950 1.5042,-0.3950 1.5042 -0.3950c 1.2941,0.0000 1.8908,0.8067 1.8908 0.8067c 0.5966,0.8067 0.5966,2.3866 0.5966 2.3866v 5.1765 h -1.3782 v -4.9916 c 0.0000,-1.1597 -0.3697,-1.6723 -0.3697 -1.6723c -0.3697,-0.5126 -1.1765,-0.5126 -1.1765 -0.5126c -0.6387,-0.0000 -1.1261,0.3193 -1.1261 0.3193c -0.4874,0.3193 -1.1092,0.9412 -1.1092 0.9412v 5.9160 h -1.3782 v -8.1681 ZM 559.3046,566.0000 ZM 560.0945,561.9328 c 0.0000,-0.9916 0.2941,-1.7899 0.2941 -1.7899c 0.2941,-0.7983 0.7815,-1.3529 0.7815 -1.3529c 0.4874,-0.5546 1.1261,-0.8571 1.1261 -0.8571c 0.6387,-0.3025 1.3445,-0.3025 1.3445 -0.3025c 0.7059,0.0000 1.2269,0.2521 1.2269 0.2521c 0.5210,0.2521 1.0588,0.6891 1.0588 0.6891l -0.0672,-1.3950 v -3.1429 h 1.3950 v 11.9664 h -1.1429 l -0.1176,-0.9580 h -0.0504 c -0.4874,0.4706 -1.1176,0.8151 -1.1176 0.8151c -0.6303,0.3445 -1.3529,0.3445 -1.3529 0.3445c -1.5462,-0.0000 -2.4622,-1.1092 -2.4622 -1.1092c -0.9160,-1.1092 -0.9160,-3.1597 -0.9160 -3.1597ZM 560.0945,561.9328 ZM 561.5231,561.9160 c 0.0000,1.4790 0.5882,2.3025 0.5882 2.3025c 0.5882,0.8235 1.6639,0.8235 1.6639 0.8235c 0.5714,0.0000 1.0756,-0.2773 1.0756 -0.2773c 0.5042,-0.2773 1.0084,-0.8487 1.0084 -0.8487v -4.2689 c -0.5210,-0.4706 -1.0000,-0.6639 -1.0000 -0.6639c -0.4790,-0.1933 -0.9832,-0.1933 -0.9832 -0.1933c -0.4874,-0.0000 -0.9160,0.2269 -0.9160 0.2269c -0.4286,0.2269 -0.7479,0.6387 -0.7479 0.6387c -0.3193,0.4118 -0.5042,0.9832 -0.5042 0.9832c -0.1849,0.5714 -0.1849,1.2773 -0.1849 1.2773ZM 568.6324,566.0000 ZM 569.8929,557.8319 h 1.3950 v 4.9916 c 0.0000,1.1597 0.3613,1.6723 0.3613 1.6723c 0.3613,0.5126 1.1681,0.5126 1.1681 0.5126c 0.6387,0.0000 1.1261,-0.3277 1.1261 -0.3277c 0.4874,-0.3277 1.0756,-1.0504 1.0756 -1.0504v -5.7983 h 1.3782 v 8.1681 h -1.1429 l -0.1176,-1.2773 h -0.0504 c -0.5714,0.6723 -1.2017,1.0756 -1.2017 1.0756c -0.6303,0.4034 -1.4874,0.4034 -1.4874 0.4034c -1.3109,-0.0000 -1.9076,-0.8067 -1.9076 -0.8067c -0.5966,-0.8067 -0.5966,-2.3866 -0.5966 -2.3866v -5.1765 ZM 577.7752,566.0000 ZM 579.8592,556.1513 c -0.4034,-0.0000 -0.6807,-0.2521 -0.6807 -0.2521c -0.2773,-0.2521 -0.2773,-0.6387 -0.2773 -0.6387c 0.0000,-0.4034 0.2773,-0.6471 0.2773 -0.6471c 0.2773,-0.2437 0.6807,-0.2437 0.6807 -0.2437c 0.4034,0.0000 0.6807,0.2437 0.6807 0.2437c 0.2773,0.2437 0.2773,0.6471 0.2773 0.6471c 0.0000,0.3866 -0.2773,0.6387 -0.2773 0.6387c -0.2773,0.2521 -0.6807,0.2521 -0.6807 0.2521ZM 579.8592,556.1513 ZM 579.1534,557.8319 h 1.3782 v 8.1681 h -1.3782 v -8.1681 ZM 581.9097,566.0000 ZM 583.5231,558.9580 h -1.2101 v -1.0420 l 1.2773,-0.0840 l 0.1681,-2.2857 h 1.1597 v 2.2857 h 2.2017 v 1.1261 h -2.2017 v 4.5378 c 0.0000,0.7563 0.2773,1.1681 0.2773 1.1681c 0.2773,0.4118 0.9832,0.4118 0.9832 0.4118c 0.2185,0.0000 0.4706,-0.0672 0.4706 -0.0672c 0.2521,-0.0672 0.4538,-0.1513 0.4538 -0.1513l 0.2689,1.0420 c -0.3361,0.1176 -0.7311,0.2101 -0.7311 0.2101c -0.3950,0.0924 -0.7815,0.0924 -0.7815 0.0924c -0.6555,-0.0000 -1.1008,-0.2017 -1.1008 -0.2017c -0.4454,-0.2017 -0.7227,-0.5546 -0.7227 -0.5546c -0.2773,-0.3529 -0.3950,-0.8571 -0.3950 -0.8571c -0.1176,-0.5042 -0.1176,-1.1092 -0.1176 -1.1092v -4.5210 ZM 587.5903,566.0000 ZM 591.1870,568.9580 c -1.0420,-1.6807 -1.6303,-3.5462 -1.6303 -3.5462c -0.5882,-1.8655 -0.5882,-4.0840 -0.5882 -4.0840c 0.0000,-2.2185 0.5882,-4.0756 0.5882 -4.0756c 0.5882,-1.8571 1.6303,-3.5546 1.6303 -3.5546l 0.8571,0.4034 c -0.9748,1.6134 -1.4538,3.4538 -1.4538 3.4538c -0.4790,1.8403 -0.4790,3.7731 -0.4790 3.7731c 0.0000,1.9328 0.4790,3.7731 0.4790 3.7731c 0.4790,1.8403 1.4538,3.4538 1.4538 3.4538l -0.8571,0.4034 h 0.0000 ZM 592.6828,566.0000 ZM 594.0609,557.8319 h 1.1429 l 0.1176,1.1765 h 0.0504 c 0.5378,-0.5882 1.1681,-0.9832 1.1681 -0.9832c 0.6303,-0.3950 1.3697,-0.3950 1.3697 -0.3950c 0.9412,0.0000 1.4706,0.4118 1.4706 0.4118c 0.5294,0.4118 0.7815,1.1513 0.7815 1.1513c 0.6387,-0.7059 1.2857,-1.1345 1.2857 -1.1345c 0.6471,-0.4286 1.4034,-0.4286 1.4034 -0.4286c 1.2605,0.0000 1.8739,0.8067 1.8739 0.8067c 0.6134,0.8067 0.6134,2.3866 0.6134 2.3866v 5.1765 h -1.3782 v -4.9916 c 0.0000,-1.1597 -0.3697,-1.6723 -0.3697 -1.6723c -0.3697,-0.5126 -1.1429,-0.5126 -1.1429 -0.5126c -0.9244,-0.0000 -2.0504,1.2605 -2.0504 1.2605v 5.9160 h -1.3782 v -4.9916 c 0.0000,-1.1597 -0.3697,-1.6723 -0.3697 -1.6723c -0.3697,-0.5126 -1.1597,-0.5126 -1.1597 -0.5126c -0.9244,-0.0000 -2.0504,1.2605 -2.0504 1.2605v 5.9160 h -1.3782 v -8.1681 ZM 606.6155,566.0000 ZM 607.7752,564.1513 c 0.5378,0.4370 1.1008,0.7059 1.1008 0.7059c 0.5630,0.2689 1.3025,0.2689 1.3025 0.2689c 0.8067,0.0000 1.2101,-0.3697 1.2101 -0.3697c 0.4034,-0.3697 0.4034,-0.9076 0.4034 -0.9076c 0.0000,-0.3193 -0.1681,-0.5546 -0.1681 -0.5546c -0.1681,-0.2353 -0.4286,-0.4118 -0.4286 -0.4118c -0.2605,-0.1765 -0.5966,-0.3109 -0.5966 -0.3109l -0.6723,-0.2689 c -0.4370,-0.1513 -0.8739,-0.3445 -0.8739 -0.3445c -0.4370,-0.1933 -0.7815,-0.4706 -0.7815 -0.4706c -0.3445,-0.2773 -0.5630,-0.6471 -0.5630 -0.6471c -0.2185,-0.3697 -0.2185,-0.8908 -0.2185 -0.8908c 0.0000,-0.4874 0.1933,-0.9160 0.1933 -0.9160c 0.1933,-0.4286 0.5546,-0.7395 0.5546 -0.7395c 0.3613,-0.3109 0.8824,-0.4874 0.8824 -0.4874c 0.5210,-0.1765 1.1765,-0.1765 1.1765 -0.1765c 0.7731,0.0000 1.4202,0.2689 1.4202 0.2689c 0.6471,0.2689 1.1176,0.6555 1.1176 0.6555l -0.6555,0.8739 c -0.4202,-0.3193 -0.8739,-0.5210 -0.8739 -0.5210c -0.4538,-0.2017 -0.9916,-0.2017 -0.9916 -0.2017c -0.7731,-0.0000 -1.1345,0.3529 -1.1345 0.3529c -0.3613,0.3529 -0.3613,0.8235 -0.3613 0.8235c 0.0000,0.2857 0.1513,0.4958 0.1513 0.4958c 0.1513,0.2101 0.4034,0.3697 0.4034 0.3697c 0.2521,0.1597 0.5798,0.2857 0.5798 0.2857c 0.3277,0.1261 0.6807,0.2605 0.6807 0.2605c 0.4370,0.1681 0.8824,0.3529 0.8824 0.3529c 0.4454,0.1849 0.7983,0.4622 0.7983 0.4622c 0.3529,0.2773 0.5798,0.6807 0.5798 0.6807c 0.2269,0.4034 0.2269,0.9748 0.2269 0.9748c 0.0000,0.5042 -0.1933,0.9412 -0.1933 0.9412c -0.1933,0.4370 -0.5714,0.7731 -0.5714 0.7731c -0.3782,0.3361 -0.9412,0.5294 -0.9412 0.5294c -0.5630,0.1933 -1.2857,0.1933 -1.2857 0.1933c -0.8739,-0.0000 -1.6639,-0.3193 -1.6639 -0.3193c -0.7899,-0.3193 -1.3782,-0.8067 -1.3782 -0.8067ZM 613.6576,566.0000 ZM 614.2962,568.5546 c 0.9748,-1.6134 1.4538,-3.4538 1.4538 -3.4538c 0.4790,-1.8403 0.4790,-3.7731 0.4790 -3.7731c 0.0000,-1.9328 -0.4790,-3.7731 -0.4790 -3.7731c -0.4790,-1.8403 -1.4538,-3.4538 -1.4538 -3.4538l 0.8571,-0.4034 c 1.0420,1.6975 1.6303,3.5546 1.6303 3.5546c 0.5882,1.8571 0.5882,4.0756 0.5882 4.0756c 0.0000,2.2185 -0.5882,4.0840 -0.5882 4.0840c -0.5882,1.8655 -1.6303,3.5462 -1.6303 3.5462l -0.8571,-0.4034 h 0.0000 Z"/></g><g stroke-linejoin="bevel" stroke-opacity="0.0" fill-opacity="1.0" stroke="rgb(0,0,0)" stroke-width="0.0" fill="rgb(0,0,255)" stroke-linecap="butt" stroke-miterlimit="10.0"><path d="M 10.0000,576.0000 v 14.0000 h 22.0000 v -14.0000 Z"/></g><g stroke-linejoin="bevel" stroke-opacity="0.0" fill-opacity="1.0" stroke="rgb(0,0,0)" stroke-width="0.0" fill="rgb(0,0,0)" stroke-linecap="butt" stroke-miterlimit="10.0"><path d="M 39.1029,585.2500 ZM 39.6912,584.5294 c 1.0588,-1.0588 1.8824,-1.9118 1.8824 -1.9118c 0.8235,-0.8529 1.3824,-1.5809 1.3824 -1.5809c 0.5588,-0.7279 0.8529,-1.3382 0.8529 -1.3382c 0.2941,-0.6103 0.2941,-1.1838 0.2941 -1.1838c 0.0000,-0.8088 -0.4412,-1.3235 -0.4412 -1.3235c -0.4412,-0.5147 -1.3382,-0.5147 -1.3382 -0.5147c -0.5882,-0.0000 -1.0882,0.3309 -1.0882 0.3309c -0.5000,0.3309 -0.9118,0.8015 -0.9118 0.8015l -0.6912,-0.6912 c 0.5882,-0.6471 1.2500,-1.0368 1.2500 -1.0368c 0.6618,-0.3897 1.5882,-0.3897 1.5882 -0.3897c 1.3088,0.0000 2.0588,0.7574 2.0588 0.7574c 0.7500,0.7574 0.7500,2.0074 0.7500 2.0074c 0.0000,0.6618 -0.2868,1.3309 -0.2868 1.3309c -0.2868,0.6691 -0.7941,1.3824 -0.7941 1.3824c -0.5074,0.7132 -1.2059,1.4853 -1.2059 1.4853c -0.6985,0.7721 -1.5368,1.6397 -1.5368 1.6397c 0.3824,-0.0294 0.7941,-0.0588 0.7941 -0.0588c 0.4118,-0.0294 0.7794,-0.0294 0.7794 -0.0294h 2.7206 v 1.0441 h -6.0588 v -0.7206 Z"/></g><g stroke-linejoin="bevel" stroke-opacity="0.0" fill-opacity="1.0" stroke="rgb(0,0,0)" stroke-width="0.0" fill="rgb(0,128,0)" stroke-linecap="butt" stroke-miterlimit="10.0"><path d="M 65.2206,576.0000 v 14.0000 h 22.0000 v -14.0000 Z"/></g><g stroke-linejoin="bevel" stroke-opacity="0.0" fill-opacity="1.0" stroke="rgb(0,0,0)" stroke-width="0.0" fill="rgb(0,0,0)" stroke-linecap="butt" stroke-miterlimit="10.0"><path d="M 94.3235,585.2500 ZM 98.7941,581.6912 v -2.7206 c 0.0000,-0.3824 0.0221,-0.9044 0.0221 -0.9044c 0.0221,-0.5221 0.0515,-0.9044 0.0515 -0.9044h -0.0588 c -0.1765,0.3382 -0.3676,0.6618 -0.3676 0.6618c -0.1912,0.3235 -0.3971,0.6618 -0.3971 0.6618l -2.1912,3.2059 h 2.9412 ZM 98.7941,581.6912 ZM 101.2206,582.6618 h -1.2794 v 2.5882 h -1.1471 v -2.5882 h -4.2206 v -0.7941 l 4.0147,-6.0000 h 1.3529 v 5.8235 h 1.2794 v 0.9706 Z"/></g><g stroke-linejoin="bevel" stroke-opacity="0.0" fill-opacity="1.0" stroke="rgb(0,0,0)" stroke-width="0.0" fill="rgb(255,0,0)" stroke-linecap="butt" stroke-miterlimit="10.0"><path d="M 120.9706,576.0000 v 14.0000 h 22.0000 v -14.0000 Z"/></g><g stroke-linejoin="bevel" stroke-opacity="0.0" fill-opacity="1.0" stroke="rgb(0,0,0)" stroke-width="0.0" fill="rgb(0,0,0)" stroke-linecap="butt" stroke-miterlimit="10.0"><path d="M 150.0735,585.2500 ZM 154.0147,584.4706 c 0.3529,0.0000 0.6471,-0.1471 0.6471 -0.1471c 0.2941,-0.1471 0.5147,-0.4191 0.5147 -0.4191c 0.2206,-0.2721 0.3456,-0.6471 0.3456 -0.6471c 0.1250,-0.3750 0.1250,-0.8456 0.1250 -0.8456c 0.0000,-0.9265 -0.4265,-1.4559 -0.4265 -1.4559c -0.4265,-0.5294 -1.3088,-0.5294 -1.3088 -0.5294c -0.4412,-0.0000 -0.9632,0.2868 -0.9632 0.2868c -0.5221,0.2868 -0.9926,0.9485 -0.9926 0.9485c 0.1176,1.3824 0.6397,2.0956 0.6397 2.0956c 0.5221,0.7132 1.4191,0.7132 1.4191 0.7132ZM 154.0147,584.4706 ZM 155.9412,577.4412 c -0.2941,-0.3382 -0.6985,-0.5368 -0.6985 -0.5368c -0.4044,-0.1985 -0.8456,-0.1985 -0.8456 -0.1985c -0.4853,-0.0000 -0.9265,0.2059 -0.9265 0.2059c -0.4412,0.2059 -0.7794,0.6765 -0.7794 0.6765c -0.3382,0.4706 -0.5441,1.2279 -0.5441 1.2279c -0.2059,0.7574 -0.2206,1.8750 -0.2206 1.8750c 0.4412,-0.5441 1.0294,-0.8603 1.0294 -0.8603c 0.5882,-0.3162 1.1618,-0.3162 1.1618 -0.3162c 1.2206,0.0000 1.9485,0.7206 1.9485 0.7206c 0.7279,0.7206 0.7279,2.1765 0.7279 2.1765c 0.0000,0.6765 -0.2206,1.2279 -0.2206 1.2279c -0.2206,0.5515 -0.6029,0.9485 -0.6029 0.9485c -0.3824,0.3971 -0.8824,0.6176 -0.8824 0.6176c -0.5000,0.2206 -1.0735,0.2206 -1.0735 0.2206c -0.6912,-0.0000 -1.2794,-0.2794 -1.2794 -0.2794c -0.5882,-0.2794 -1.0221,-0.8456 -1.0221 -0.8456c -0.4338,-0.5662 -0.6838,-1.4118 -0.6838 -1.4118c -0.2500,-0.8456 -0.2500,-1.9779 -0.2500 -1.9779c 0.0000,-1.4118 0.2941,-2.4044 0.2941 -2.4044c 0.2941,-0.9926 0.7941,-1.6176 0.7941 -1.6176c 0.5000,-0.6250 1.1397,-0.9118 1.1397 -0.9118c 0.6397,-0.2868 1.3456,-0.2868 1.3456 -0.2868c 0.7647,0.0000 1.3162,0.2868 1.3162 0.2868c 0.5515,0.2868 0.9485,0.7132 0.9485 0.7132Z"/></g><g stroke-linejoin="bevel" stroke-opacity="0.0" fill-opacity="1.0" stroke="rgb(0,0,0)" stroke-width="0.0" fill="rgb(255,165,0)" stroke-linecap="butt" stroke-miterlimit="10.0"><path d="M 176.0882,576.0000 v 14.0000 h 22.0000 v -14.0000 Z"/></g><g stroke-linejoin="bevel" stroke-opacity="0.0" fill-opacity="1.0" stroke="rgb(0,0,0)" stroke-width="0.0" fill="rgb(0,0,0)" stroke-linecap="butt" stroke-miterlimit="10.0"><path d="M 205.1912,585.2500 ZM 206.8824,582.7353 c 0.0000,0.3971 0.1544,0.7206 0.1544 0.7206c 0.1544,0.3235 0.4265,0.5662 0.4265 0.5662c 0.2721,0.2426 0.6397,0.3750 0.6397 0.3750c 0.3676,0.1324 0.7941,0.1324 0.7941 0.1324c 0.8235,0.0000 1.3309,-0.4559 1.3309 -0.4559c 0.5074,-0.4559 0.5074,-1.1912 0.5074 -1.1912c 0.0000,-0.4559 -0.2059,-0.7794 -0.2059 -0.7794c -0.2059,-0.3235 -0.5588,-0.5662 -0.5588 -0.5662c -0.3529,-0.2426 -0.8162,-0.4412 -0.8162 -0.4412c -0.4632,-0.1985 -0.9632,-0.4044 -0.9632 -0.4044c -0.5588,0.3824 -0.9338,0.8897 -0.9338 0.8897c -0.3750,0.5074 -0.3750,1.1544 -0.3750 1.1544ZM 206.8824,582.7353 ZM 209.5294,580.1324 c 0.4706,-0.4265 0.7279,-0.8971 0.7279 -0.8971c 0.2574,-0.4706 0.2574,-0.9853 0.2574 -0.9853c 0.0000,-0.7059 -0.4265,-1.1838 -0.4265 -1.1838c -0.4265,-0.4779 -1.2059,-0.4779 -1.2059 -0.4779c -0.6618,-0.0000 -1.0882,0.4118 -1.0882 0.4118c -0.4265,0.4118 -0.4265,1.1029 -0.4265 1.1029c 0.0000,0.4265 0.1765,0.7279 0.1765 0.7279c 0.1765,0.3015 0.4779,0.5368 0.4779 0.5368c 0.3015,0.2353 0.6912,0.4191 0.6912 0.4191c 0.3897,0.1838 0.8162,0.3456 0.8162 0.3456ZM 209.5294,580.1324 ZM 205.7941,582.8529 c 0.0000,-0.4559 0.1544,-0.8456 0.1544 -0.8456c 0.1544,-0.3897 0.3971,-0.7059 0.3971 -0.7059c 0.2426,-0.3162 0.5588,-0.5588 0.5588 -0.5588c 0.3162,-0.2426 0.6544,-0.4191 0.6544 -0.4191v -0.0588 c -0.5147,-0.3676 -0.9118,-0.8897 -0.9118 -0.8897c -0.3971,-0.5221 -0.3971,-1.2721 -0.3971 -1.2721c 0.0000,-0.5441 0.2059,-0.9853 0.2059 -0.9853c 0.2059,-0.4412 0.5588,-0.7574 0.5588 -0.7574c 0.3529,-0.3162 0.8382,-0.4926 0.8382 -0.4926c 0.4853,-0.1765 1.0588,-0.1765 1.0588 -0.1765c 0.6176,0.0000 1.1029,0.1838 1.1029 0.1838c 0.4853,0.1838 0.8309,0.5147 0.8309 0.5147c 0.3456,0.3309 0.5294,0.7941 0.5294 0.7941c 0.1838,0.4632 0.1838,1.0074 0.1838 1.0074c 0.0000,0.3676 -0.1250,0.7059 -0.1250 0.7059c -0.1250,0.3382 -0.3088,0.6324 -0.3088 0.6324c -0.1838,0.2941 -0.4118,0.5294 -0.4118 0.5294c -0.2279,0.2353 -0.4485,0.3971 -0.4485 0.3971v 0.0588 c 0.3088,0.1765 0.6029,0.4044 0.6029 0.4044c 0.2941,0.2279 0.5221,0.5147 0.5221 0.5147c 0.2279,0.2868 0.3676,0.6544 0.3676 0.6544c 0.1397,0.3676 0.1397,0.8382 0.1397 0.8382c 0.0000,0.5294 -0.2206,0.9853 -0.2206 0.9853c -0.2206,0.4559 -0.6176,0.7941 -0.6176 0.7941c -0.3971,0.3382 -0.9559,0.5294 -0.9559 0.5294c -0.5588,0.1912 -1.2353,0.1912 -1.2353 0.1912c -0.6618,-0.0000 -1.2279,-0.1912 -1.2279 -0.1912c -0.5662,-0.1912 -0.9706,-0.5368 -0.9706 -0.5368c -0.4044,-0.3456 -0.6397,-0.8162 -0.6397 -0.8162c -0.2353,-0.4706 -0.2353,-1.0294 -0.2353 -1.0294Z"/></g></svg>